{"glyphs":{"0":{"ha":731,"x_min":0,"x_max":0,"o":"m 658 371 b 424 604 658 508 549 604 b 44 221 239 604 44 419 b 279 -12 44 83 154 -12 b 658 371 465 -12 658 172 z m 572 444 b 464 108 572 371 499 161 b 275 4 422 44 382 4 b 131 147 171 4 131 69 b 239 483 131 221 204 431 b 426 588 281 547 321 588 b 572 444 532 588 572 522 z "},"1":{"ha":474,"x_min":0,"x_max":0,"o":"m 469 592 l 163 592 b 157 575 160 592 154 575 l 247 575 b 254 569 253 575 256 574 l 81 22 b 71 17 81 18 76 17 l -19 17 b -24 0 -22 17 -26 0 l 283 0 b 288 17 286 0 290 17 l 197 17 b 190 22 192 17 189 18 l 364 569 b 374 575 364 574 368 575 l 464 575 b 469 592 467 575 472 592 z "},"2":{"ha":590,"x_min":0,"x_max":0,"o":"m 528 199 b 511 199 528 201 511 201 b 368 89 488 124 450 89 l 129 89 b 125 94 124 89 118 90 b 497 443 368 217 497 331 b 313 604 497 546 418 604 b 143 463 194 604 143 526 b 229 369 143 400 175 369 b 281 418 257 369 281 389 b 243 465 281 450 264 465 b 190 451 218 465 219 451 b 165 481 168 451 165 454 b 281 578 165 514 196 578 b 389 463 350 578 389 539 b -82 15 389 321 244 132 b -83 0 -90 13 -87 0 l 461 0 b 467 4 464 0 465 1 z "},"3":{"ha":546,"x_min":0,"x_max":0,"o":"m 463 457 b 282 604 463 515 436 604 b 107 469 156 604 107 528 b 192 369 107 411 140 369 b 244 419 219 369 244 390 b 206 467 244 451 228 467 b 154 453 181 467 183 453 b 131 488 136 453 131 464 b 249 579 131 518 163 579 b 353 478 315 579 353 539 b 65 115 353 336 264 208 b 74 103 61 114 69 100 b 196 147 139 138 169 147 b 276 51 233 147 276 125 b -31 -382 276 -193 175 -382 b -160 -301 -121 -382 -160 -340 b -118 -256 -160 -268 -137 -256 b -50 -275 -83 -256 -79 -275 b -4 -218 -24 -275 -4 -256 b -67 -158 -4 -183 -32 -158 b -186 -281 -137 -158 -186 -212 b -28 -399 -186 -353 -133 -399 b 393 -1 138 -399 393 -233 b 228 171 393 111 335 171 b 181 164 214 171 200 169 b 463 457 301 207 463 350 z "},"4":{"ha":615,"x_min":0,"x_max":0,"o":"m 696 740 b 685 749 697 742 686 751 b 472 668 636 703 521 647 l 75 175 b -68 15 26 114 -28 54 b -65 1 -71 13 -68 1 l 281 1 l 160 -386 l 269 -386 l 390 1 l 536 1 b 542 18 539 1 544 18 l 396 18 l 490 314 b 472 314 490 315 474 315 b 340 188 450 269 401 193 l 286 18 l -44 18 z "},"5":{"ha":563,"x_min":0,"x_max":0,"o":"m 550 581 b 507 625 550 610 543 625 b 292 550 467 625 408 550 b 186 590 239 550 201 568 b 172 583 185 592 174 586 b 169 571 172 581 172 579 l 64 107 b 46 65 61 96 49 74 b 56 51 43 54 51 51 b 72 60 60 51 71 54 b 88 110 78 75 74 86 b 232 203 125 175 174 203 b 325 97 286 203 325 171 b -6 -382 325 -181 206 -382 b -136 -301 -96 -382 -136 -340 b -93 -256 -136 -268 -112 -256 b -25 -275 -58 -256 -56 -275 b 21 -218 0 -275 21 -256 b -42 -158 21 -183 -8 -158 b -162 -281 -114 -158 -162 -212 b -4 -399 -162 -353 -110 -399 b 439 32 171 -399 439 -197 b 258 224 439 146 374 224 b 90 136 178 224 128 193 l 186 557 b 344 475 204 514 268 475 b 550 581 467 475 550 514 z "},"6":{"ha":672,"x_min":0,"x_max":0,"o":"m 735 869 b 603 990 735 944 699 990 b 53 222 365 990 53 546 b 261 -11 53 56 157 -11 b 608 342 433 -11 608 158 b 396 557 608 468 511 557 b 217 453 329 557 257 518 b 606 974 292 721 426 974 b 711 897 682 974 711 938 b 672 856 711 865 689 856 b 603 875 636 856 633 875 b 557 818 578 875 557 856 b 619 758 557 783 586 758 b 735 869 682 758 735 808 z m 518 418 b 431 97 518 351 463 146 b 256 4 386 32 353 4 b 143 115 179 4 143 43 b 213 421 143 235 185 369 b 392 540 246 485 319 540 b 518 418 481 540 518 493 z "},"7":{"ha":594,"x_min":0,"x_max":0,"o":"m 625 593 l 613 593 l 147 593 b 142 590 144 593 143 592 l 71 364 b 88 364 71 361 86 361 b 244 511 114 447 156 511 l 549 511 l -115 -385 l 21 -385 l 472 372 b 624 582 514 442 571 521 b 625 593 626 585 626 593 z "},"8":{"ha":665,"x_min":0,"x_max":0,"o":"m 714 815 b 524 990 714 901 638 990 b 251 719 363 990 251 885 b 350 513 251 633 299 576 b 38 171 169 438 38 317 b 250 -12 38 67 126 -12 b 567 278 415 -12 567 97 b 456 543 567 388 513 467 b 714 815 619 615 714 707 z m 636 856 b 444 554 636 765 606 631 b 332 796 386 635 332 696 b 518 974 332 919 406 974 b 636 856 601 974 636 925 z m 474 240 b 258 4 474 74 375 4 b 131 163 179 4 131 51 b 360 499 131 361 232 444 b 474 240 419 422 474 350 z "},"9":{"ha":685,"x_min":0,"x_max":0,"o":"m 607 371 b 399 604 607 538 504 604 b 44 228 228 604 44 411 b 257 13 44 101 143 13 b 436 111 324 13 397 49 b 54 -382 383 -79 211 -382 b -60 -310 -24 -382 -60 -347 b -18 -261 -60 -275 -37 -261 b 49 -282 18 -261 18 -282 b 94 -225 74 -282 94 -264 b 32 -167 94 -190 65 -167 b -83 -285 -37 -167 -83 -221 b 57 -399 -83 -357 -40 -399 b 607 371 294 -399 607 47 z m 525 472 b 442 146 525 406 469 197 b 261 29 406 74 326 29 b 122 143 161 29 122 92 b 235 497 122 211 201 449 b 404 588 272 556 314 588 b 525 472 496 588 525 535 z "}," ":{"ha":278,"x_min":0,"x_max":0,"o":""},"!":{"ha":383,"x_min":0,"x_max":0,"o":"m 447 956 b 394 1008 447 985 429 1008 b 296 917 358 1008 318 986 b 140 228 265 818 218 474 b 157 228 139 224 157 224 b 447 956 235 474 447 882 z m 161 72 b 108 129 161 106 139 129 b 24 38 64 129 24 85 b 76 -18 24 4 47 -18 b 161 72 121 -18 161 25 z "},"\"":{"ha":460,"x_min":0,"x_max":0,"o":"m 531 958 b 485 1008 531 992 514 1008 b 436 964 463 1008 443 986 b 394 692 419 911 407 783 l 390 676 b 404 676 389 672 403 671 b 410 690 406 676 410 690 b 531 958 453 774 531 901 z m 322 958 b 276 1008 322 992 306 1008 b 228 964 254 1008 235 986 b 186 692 211 911 199 783 l 182 676 b 196 676 181 672 194 671 b 201 690 197 676 201 690 b 322 958 244 774 322 901 z "},"#":{"ha":653,"x_min":0,"x_max":0,"o":"m 632 411 b 632 428 635 411 635 428 l 478 428 l 538 649 b 522 650 539 651 524 653 l 461 428 l 288 428 l 349 649 b 333 650 349 651 335 653 l 272 428 l 121 428 b 121 411 118 428 118 411 l 267 411 l 208 190 l 56 190 b 56 174 53 190 53 174 l 203 174 l 139 -58 b 154 -60 139 -61 153 -62 l 218 174 l 393 174 l 329 -58 b 344 -60 328 -61 343 -62 l 408 174 l 568 174 b 568 190 571 174 571 190 l 414 190 l 472 411 z m 457 411 l 397 190 l 224 190 l 283 411 z "},"$":{"ha":733,"x_min":0,"x_max":0,"o":"m 775 818 b 638 999 775 896 725 971 l 678 1122 b 660 1125 678 1125 660 1128 l 621 1003 b 563 1010 603 1007 583 1010 b 535 1008 554 1010 543 1008 l 571 1122 b 553 1125 572 1125 554 1128 l 515 1006 b 258 707 357 985 258 860 b 351 490 258 613 301 549 b 199 3 353 490 199 3 b 53 154 111 25 53 85 b 96 208 53 190 69 208 b 172 186 136 208 139 186 b 224 250 201 186 224 207 b 154 315 224 289 192 315 b 31 161 82 315 31 260 b 193 -12 31 89 93 15 b 154 -140 194 -12 154 -140 b 172 -143 153 -143 171 -146 l 211 -17 b 281 -24 233 -21 257 -24 b 297 -22 286 -24 292 -24 b 261 -140 297 -24 261 -140 b 278 -143 260 -143 278 -146 l 317 -22 b 619 301 525 -7 619 144 b 496 550 619 408 561 482 l 633 983 b 754 832 714 957 754 889 b 718 769 754 796 746 769 b 650 789 682 769 679 789 b 603 731 624 789 603 769 b 663 675 603 697 629 675 b 775 818 725 675 775 722 z m 617 988 l 483 565 b 417 636 461 589 438 613 b 529 990 417 636 529 992 b 565 993 540 992 553 993 b 617 988 583 993 600 990 z m 510 988 b 403 653 510 989 404 653 b 336 811 364 700 336 750 b 510 988 336 896 393 971 z m 532 221 b 321 -6 532 106 476 8 b 447 393 322 -6 447 393 b 532 221 494 343 532 290 z m 433 408 b 303 -6 404 314 310 15 b 281 -7 296 -7 289 -7 b 217 -1 258 -7 236 -4 b 367 475 217 -1 367 476 b 433 408 389 453 413 431 z "},"%":{"ha":982,"x_min":0,"x_max":0,"o":"m 543 815 b 385 990 543 925 476 990 b 76 672 208 990 76 815 b 236 497 76 563 144 497 b 543 815 413 497 543 672 z m 822 1007 b 807 1017 824 1010 808 1019 l 207 -24 b 221 -33 206 -26 219 -36 z m 951 306 b 792 481 951 415 883 481 b 483 163 615 481 483 306 b 643 -12 483 53 551 -12 b 951 306 819 -12 951 163 z m 460 879 b 332 539 460 796 422 600 b 239 514 304 519 274 514 b 163 608 181 514 163 542 b 290 949 163 692 199 888 b 382 974 318 968 349 974 b 460 879 440 974 460 946 z m 867 369 b 739 29 867 286 831 90 b 647 4 710 10 681 4 b 569 99 589 4 569 32 b 696 439 569 182 607 378 b 789 464 725 458 754 464 b 867 369 847 464 867 436 z "},"&":{"ha":1036,"x_min":0,"x_max":0,"o":"m 1015 460 b 910 551 1015 513 981 551 b 639 225 788 551 719 342 b 536 686 579 349 533 510 b 763 919 679 756 763 838 b 660 1008 763 976 728 1008 b 400 619 524 1008 400 853 b 50 222 171 538 50 386 b 290 -24 50 74 157 -24 b 554 79 408 -24 489 24 b 769 -24 606 15 661 -24 b 1000 125 876 -24 978 49 b 985 131 1001 129 986 133 b 857 35 964 79 917 35 b 646 210 786 35 701 99 b 853 490 722 318 781 490 b 949 397 918 490 874 397 b 1015 460 993 397 1015 428 z m 746 924 b 536 704 746 839 668 769 b 688 986 539 838 589 986 b 746 924 725 986 746 963 z m 544 92 b 383 19 504 56 429 19 b 175 292 258 19 175 132 b 400 601 175 451 235 544 b 544 92 400 368 463 213 z "},"’":{"ha":251,"x_min":0,"x_max":0,"o":"m 357 940 b 296 1008 357 971 339 1008 b 222 931 250 1008 222 975 b 251 835 222 890 251 872 b 146 719 251 779 194 743 b 89 701 131 713 111 706 b 89 685 88 701 85 685 b 357 940 238 714 357 850 z "},"(":{"ha":404,"x_min":0,"x_max":0,"o":"m 649 1013 b 642 1025 651 1014 646 1026 b 51 76 328 849 51 481 b 213 -339 51 -131 115 -254 b 224 -329 214 -340 225 -331 b 115 -71 147 -264 115 -204 b 404 792 115 63 275 556 b 649 1013 447 869 536 949 z "},")":{"ha":404,"x_min":0,"x_max":0,"o":"m 333 611 b 172 1026 333 818 269 942 b 161 1017 171 1028 160 1018 b 269 758 238 951 269 892 b -19 -104 269 625 110 132 b -264 -325 -62 -182 -151 -261 b -257 -337 -267 -326 -261 -339 b 333 611 57 -161 333 207 z "},"*":{"ha":403,"x_min":0,"x_max":0,"o":"m 479 876 b 456 915 482 892 474 911 b 440 914 451 915 446 915 b 333 847 408 901 407 874 l 325 844 l 326 853 b 372 971 339 931 367 938 b 347 1004 375 988 364 1001 b 313 981 331 1007 315 997 b 315 857 307 947 329 933 l 314 847 l 307 854 b 229 951 246 904 256 929 b 215 957 225 954 221 956 b 181 929 199 960 183 944 b 190 904 179 921 182 911 b 300 844 217 882 240 894 l 306 840 l 299 836 b 174 818 225 810 206 829 b 156 797 164 814 158 806 b 179 760 153 782 163 763 b 194 761 185 758 190 758 b 301 826 226 772 228 800 l 311 829 l 308 821 b 263 703 296 743 269 736 b 288 669 260 688 271 674 b 322 693 304 667 319 676 b 319 818 329 726 306 740 l 321 826 l 328 821 b 407 724 389 771 381 744 b 419 717 411 719 415 718 b 456 744 438 714 453 729 b 446 769 457 754 453 763 b 336 829 419 792 396 779 l 329 835 l 338 838 b 461 857 411 864 429 844 b 479 876 471 860 478 868 z "},"+":{"ha":571,"x_min":0,"x_max":0,"o":"m 501 285 b 501 307 504 285 504 307 l 301 307 l 301 521 b 281 521 301 524 281 524 l 281 307 l 78 307 b 78 285 75 307 75 285 l 281 285 l 281 76 b 301 76 281 74 301 74 l 301 285 z "},",":{"ha":272,"x_min":0,"x_max":0,"o":"m 165 61 b 104 129 165 92 147 129 b 31 51 58 129 31 96 b 60 -44 31 11 60 -7 b -46 -160 60 -100 3 -136 b -103 -178 -61 -167 -81 -174 b -103 -194 -104 -178 -107 -194 b 165 61 46 -165 165 -29 z "},"-":{"ha":447,"x_min":0,"x_max":0,"o":"m 410 371 b 410 376 413 374 413 376 l 63 376 b 38 292 60 344 51 313 b 38 286 36 289 35 286 l 385 286 b 410 371 388 318 396 350 z "},".":{"ha":272,"x_min":0,"x_max":0,"o":"m 167 72 b 114 129 167 106 144 129 b 29 38 69 129 29 85 b 82 -18 29 4 51 -18 b 167 72 126 -18 167 25 z "},"/":{"ha":456,"x_min":0,"x_max":0,"o":"m 529 1047 b 515 1054 531 1050 517 1057 l 72 -25 b 86 -32 71 -28 86 -35 z "},":":{"ha":363,"x_min":0,"x_max":0,"o":"m 290 478 b 238 535 290 511 268 535 b 153 443 193 535 153 490 b 206 388 153 410 175 388 b 290 478 250 388 290 431 z m 167 72 b 114 129 167 106 144 129 b 29 38 69 129 29 85 b 82 -18 29 4 51 -18 b 167 72 126 -18 167 25 z "},";":{"ha":363,"x_min":0,"x_max":0,"o":"m 290 478 b 238 535 290 511 268 535 b 153 443 193 535 153 490 b 206 388 153 410 175 388 b 290 478 250 388 290 431 z m 165 61 b 104 129 165 92 147 129 b 31 51 58 129 31 96 b 60 -44 31 11 60 -7 b -46 -160 60 -100 3 -136 b -103 -178 -61 -167 -81 -174 b -103 -194 -104 -178 -107 -194 b 165 61 46 -165 165 -29 z "},"<":{"ha":458,"x_min":0,"x_max":0,"o":"m 397 117 l 97 296 l 397 476 b 390 492 400 478 393 493 l 71 301 b 71 290 69 300 69 292 l 390 100 b 397 117 393 99 400 115 z "},"=":{"ha":517,"x_min":0,"x_max":0,"o":"m 443 371 b 443 386 446 371 446 386 l 75 386 b 75 371 72 386 72 371 z m 443 206 b 443 221 446 206 446 221 l 75 221 b 75 206 72 221 72 206 z "},">":{"ha":465,"x_min":0,"x_max":0,"o":"m 396 290 b 396 301 397 292 397 300 l 78 492 b 69 476 75 493 67 478 l 369 296 l 69 117 b 78 100 67 115 75 99 z "},"?":{"ha":633,"x_min":0,"x_max":0,"o":"m 667 774 b 446 1007 667 899 571 1007 b 215 832 311 1007 215 904 b 282 760 215 793 243 760 b 347 813 326 760 347 783 b 329 885 347 847 329 844 b 450 992 329 958 358 992 b 578 861 521 992 578 953 b 482 532 578 794 510 583 b 322 451 447 474 410 451 b 240 500 288 451 249 468 b 224 497 240 506 225 500 b 222 490 222 496 224 493 l 142 228 b 158 228 140 224 157 224 l 236 474 b 325 435 249 450 289 435 b 667 774 508 435 667 585 z m 161 72 b 108 129 161 106 139 129 b 24 38 64 129 24 85 b 76 -18 24 4 46 -18 b 161 72 121 -18 161 25 z "},"@":{"ha":1107,"x_min":0,"x_max":0,"o":"m 1050 561 b 601 1008 1050 846 849 1008 b 108 493 329 1008 108 778 b 601 -24 108 208 329 -24 b 913 93 719 -24 828 21 b 903 106 917 96 906 107 b 601 -8 821 35 715 -8 b 125 493 339 -8 125 214 b 601 992 125 771 339 992 b 1033 560 842 992 1033 838 b 768 268 1033 376 904 268 b 753 507 692 268 700 332 l 819 729 l 736 729 l 721 679 b 625 740 713 718 664 740 b 326 422 463 740 326 567 b 467 246 326 335 364 246 b 640 386 519 246 601 285 b 744 246 621 313 635 246 b 1050 561 875 246 1050 343 z m 710 640 l 646 431 b 475 265 629 372 558 265 b 399 349 429 265 399 296 b 526 683 399 442 450 618 b 624 725 558 711 586 725 b 710 640 679 725 721 683 z "},"A":{"ha":893,"x_min":0,"x_max":0,"o":"m 826 17 l 697 17 b 689 22 692 17 689 18 l 689 1004 b 669 1004 689 1008 674 1010 l -33 75 b -99 17 -71 25 -83 17 l -199 17 b -203 0 -201 17 -206 0 l 78 0 b 82 17 81 0 85 17 l -39 17 b -11 75 -51 17 -51 24 l 186 336 l 544 336 l 544 22 b 536 17 544 18 542 17 l 429 17 b 425 0 425 17 421 0 l 822 0 b 826 17 825 0 829 17 z m 544 353 l 200 353 l 544 808 z "},"B":{"ha":894,"x_min":0,"x_max":0,"o":"m 871 771 b 588 985 871 904 771 985 l 233 985 b 228 968 229 985 225 968 l 353 968 b 360 963 358 968 361 965 l 63 22 b 53 17 61 18 58 17 l -72 17 b -78 0 -75 17 -81 0 l 374 0 b 806 304 621 0 806 146 b 553 526 806 442 708 519 b 871 771 739 533 871 633 z m 756 849 b 678 613 756 771 710 661 b 508 535 640 557 594 535 l 376 535 l 513 963 b 522 968 513 965 517 968 l 599 968 b 756 849 708 968 756 939 z m 669 393 b 581 103 669 293 624 169 b 379 17 539 39 479 17 l 222 17 b 215 22 217 17 214 18 l 372 517 l 508 517 b 669 393 619 517 669 472 z "},"C":{"ha":867,"x_min":0,"x_max":0,"o":"m 949 1004 b 932 1004 950 1007 933 1007 b 849 963 921 982 899 963 b 646 1008 783 963 724 1008 b 68 346 350 1008 68 679 b 406 -25 68 115 206 -25 b 803 222 556 -25 693 65 b 790 233 804 225 793 236 b 406 -8 679 75 553 -8 b 181 196 272 -8 181 51 b 383 849 181 361 322 751 b 646 992 446 950 533 992 b 844 729 775 992 888 867 b 861 729 844 726 861 726 z "},"D":{"ha":1036,"x_min":0,"x_max":0,"o":"m 1010 606 b 649 985 1010 825 847 985 l 233 985 b 228 968 229 985 225 968 l 353 968 b 360 963 358 968 361 967 l 63 22 b 53 17 61 18 58 17 l -72 17 b -78 0 -75 17 -81 0 l 382 0 b 1010 606 678 0 1010 289 z m 888 753 b 721 183 888 596 782 276 b 379 17 643 65 518 17 l 222 17 b 215 22 217 17 214 18 l 513 963 b 522 968 513 967 517 968 l 644 968 b 888 753 832 968 888 858 z "},"E":{"ha":893,"x_min":0,"x_max":0,"o":"m 938 981 b 935 985 938 982 938 985 l 233 985 b 228 968 231 985 225 968 l 353 968 b 360 963 358 968 361 967 l 63 22 b 51 17 61 18 58 17 l -72 17 b -78 0 -76 17 -81 0 l 699 0 b 704 4 701 0 703 1 l 790 279 b 774 279 792 282 775 282 b 368 17 729 136 618 17 l 222 17 b 214 22 215 17 214 18 l 369 511 l 433 511 b 546 343 547 511 576 438 b 563 343 544 340 563 340 l 664 665 b 646 665 664 668 647 668 b 439 528 617 569 553 528 l 375 528 l 511 963 b 522 968 513 967 517 968 l 685 968 b 850 733 850 968 893 867 b 867 733 850 729 867 729 z "},"F":{"ha":818,"x_min":0,"x_max":0,"o":"m 939 982 b 936 986 939 983 939 986 l 233 986 b 229 969 231 986 225 969 l 353 969 b 361 964 360 969 361 967 l 64 24 b 53 18 63 19 60 18 l -71 18 b -78 1 -75 18 -81 1 l 369 1 b 374 18 372 1 378 18 l 224 18 b 215 24 217 18 215 19 l 371 513 l 454 513 b 567 344 568 513 597 439 b 583 344 565 340 583 340 l 685 667 b 667 667 685 669 668 669 b 460 529 638 571 574 529 l 376 529 l 513 964 b 524 969 514 967 517 969 l 685 969 b 851 735 850 969 894 868 b 869 735 851 731 868 731 z "},"G":{"ha":926,"x_min":0,"x_max":0,"o":"m 972 388 l 553 388 b 547 371 550 388 544 371 l 672 371 b 679 367 678 371 681 369 l 606 128 b 406 -8 579 46 511 -8 b 181 194 269 -8 181 49 b 383 847 181 360 322 750 b 653 989 446 947 536 989 b 844 728 779 989 888 864 b 861 728 843 724 861 724 l 949 1003 b 932 1003 949 1006 933 1006 b 849 961 921 981 899 961 b 653 1007 792 961 729 1007 b 68 344 356 1007 68 678 b 406 -25 68 114 206 -25 b 646 47 521 -25 586 47 b 694 -6 686 47 703 26 b 714 -7 693 -10 713 -10 l 832 367 b 842 371 833 369 836 371 l 967 371 b 972 388 969 371 975 388 z "},"H":{"ha":1093,"x_min":0,"x_max":0,"o":"m 1211 985 l 806 985 b 800 968 803 985 797 968 l 911 968 b 919 963 918 968 919 967 l 779 521 l 372 521 l 513 963 b 522 968 513 967 517 968 l 633 968 b 639 985 636 968 642 985 l 233 985 b 228 968 231 985 225 968 l 353 968 b 360 963 358 968 361 967 l 63 22 b 53 17 61 18 58 17 l -72 17 b -76 0 -75 17 -79 0 l 329 0 b 333 17 332 0 336 17 l 222 17 b 215 22 217 17 214 18 l 367 504 l 775 504 l 622 22 b 613 17 621 18 618 17 l 500 17 b 496 0 497 17 493 0 l 901 0 b 907 17 904 0 910 17 l 782 17 b 775 22 775 17 774 18 l 1071 963 b 1082 968 1072 967 1075 968 l 1206 968 b 1211 985 1210 968 1215 985 z "},"I":{"ha":535,"x_min":0,"x_max":0,"o":"m 653 985 l 233 985 b 229 968 231 985 225 968 l 353 968 b 361 963 360 968 361 967 l 64 22 b 53 17 63 18 58 17 l -72 17 b -78 0 -75 17 -81 0 l 342 0 b 347 17 346 0 350 17 l 222 17 b 215 22 217 17 214 18 l 513 963 b 524 968 514 967 517 968 l 647 968 b 653 985 651 968 656 985 z "},"J":{"ha":764,"x_min":0,"x_max":0,"o":"m 896 985 l 476 985 b 472 968 474 985 469 968 l 597 968 b 604 963 603 968 606 967 l 338 118 b 167 -7 310 31 238 -7 b 67 53 99 -7 67 13 b 104 103 67 81 81 99 b 167 190 146 111 167 157 b 81 275 167 232 129 275 b -29 158 15 275 -29 208 b 163 -24 -29 65 32 -24 b 547 299 350 -24 476 76 l 756 963 b 767 968 757 967 761 968 l 892 968 b 896 985 894 968 900 985 z "},"K":{"ha":925,"x_min":0,"x_max":0,"o":"m 1083 985 l 810 985 b 804 968 807 985 801 968 l 914 968 b 865 910 926 968 918 953 l 365 496 l 513 963 b 522 968 513 967 517 968 l 642 968 b 647 985 644 968 650 985 l 233 985 b 228 968 231 985 225 968 l 353 968 b 360 963 358 968 361 967 l 63 22 b 53 17 61 18 58 17 l -72 17 b -78 0 -75 17 -81 0 l 336 0 b 340 17 339 0 344 17 l 222 17 b 215 22 217 17 214 18 l 363 488 l 576 22 b 571 17 576 19 575 17 l 440 17 b 436 0 438 17 433 0 l 907 0 b 914 17 911 0 917 17 l 756 17 b 744 22 753 17 746 19 l 486 576 l 890 910 b 972 968 949 958 961 968 l 1078 968 b 1083 985 1082 968 1088 985 z "},"L":{"ha":813,"x_min":0,"x_max":0,"o":"m 747 279 b 731 279 749 282 731 282 b 325 17 685 136 574 17 l 222 17 b 215 22 217 17 214 18 l 511 963 b 522 968 513 967 517 968 l 647 968 b 653 985 650 968 656 985 l 233 985 b 228 968 231 985 225 968 l 353 968 b 360 963 358 968 361 967 l 63 22 b 53 17 63 18 58 17 l -72 17 b -76 0 -75 17 -79 0 l 657 0 b 661 4 660 0 661 3 z "},"M":{"ha":1235,"x_min":0,"x_max":0,"o":"m 1354 985 l 1071 985 b 1043 960 1064 985 1054 976 l 557 213 l 532 960 b 517 985 531 975 524 985 l 246 985 b 240 968 242 985 238 968 l 358 968 b 367 963 365 968 367 967 l 69 22 b 58 17 68 18 65 17 l -60 17 b -65 0 -62 17 -68 0 l 208 0 b 213 17 211 0 215 17 l 94 17 b 88 22 89 17 86 18 l 381 953 l 408 -18 b 426 -18 408 -22 424 -22 l 1057 947 l 765 22 b 754 17 764 18 761 17 l 629 17 b 624 0 626 17 621 0 l 1043 0 b 1049 17 1046 0 1053 17 l 925 17 b 917 22 918 17 917 18 l 1214 963 b 1224 968 1214 967 1218 968 l 1349 968 b 1354 985 1351 968 1357 985 z "},"N":{"ha":1033,"x_min":0,"x_max":0,"o":"m 1154 985 l 881 985 b 875 968 878 985 872 968 l 994 968 b 1001 963 1000 968 1003 967 l 768 218 l 531 960 b 507 985 524 979 517 985 l 239 985 b 235 968 236 985 231 968 l 353 968 b 360 963 358 968 361 967 l 63 22 b 53 17 63 18 58 17 l -67 17 b -72 0 -69 17 -75 0 l 201 0 b 207 17 204 0 210 17 l 88 17 b 81 22 82 17 79 18 l 371 943 l 692 -18 b 711 -18 694 -24 710 -22 l 1019 963 b 1031 968 1021 967 1024 968 l 1149 968 b 1154 985 1151 968 1157 985 z "},"O":{"ha":1008,"x_min":0,"x_max":0,"o":"m 982 639 b 646 1008 982 869 846 1008 b 68 347 350 1008 68 681 b 406 -24 68 117 206 -24 b 982 639 701 -24 982 306 z m 869 788 b 665 135 869 624 726 233 b 406 -7 599 28 507 -7 b 181 197 268 -7 181 57 b 386 850 181 361 325 753 b 646 992 453 957 544 992 b 869 788 783 992 869 929 z "},"P":{"ha":901,"x_min":0,"x_max":0,"o":"m 933 742 b 606 985 933 910 810 985 l 233 985 b 228 968 231 985 224 968 l 351 968 b 360 963 358 968 360 967 l 63 22 b 51 17 61 18 58 17 l -72 17 b -78 0 -76 17 -81 0 l 342 0 b 346 17 344 0 350 17 l 222 17 b 214 22 215 17 214 18 l 343 428 b 488 397 374 417 428 397 b 933 742 742 397 933 556 z m 799 828 b 706 511 799 736 742 565 b 493 414 661 444 603 414 b 349 446 435 414 385 429 l 511 963 b 522 968 513 967 515 968 l 636 968 b 799 828 760 968 799 918 z "},"Q":{"ha":1008,"x_min":0,"x_max":0,"o":"m 982 639 b 646 1008 982 869 846 1008 b 68 347 350 1008 68 681 b 404 -24 68 117 206 -32 b 444 -21 417 -24 433 -22 b 201 -87 385 -37 261 -62 b 151 -108 171 -92 151 -103 b 164 -125 151 -118 157 -125 b 224 -104 174 -125 193 -104 b 829 -453 418 -104 371 -453 b 829 -435 832 -453 832 -435 b 249 -89 524 -435 640 -83 b 585 19 325 -62 456 -43 b 982 639 792 113 982 368 z m 869 788 b 665 135 869 624 726 232 b 404 -8 599 28 506 -8 b 181 196 260 -8 181 56 b 386 850 181 361 325 753 b 646 992 453 957 544 992 b 869 788 783 992 869 929 z "},"R":{"ha":908,"x_min":0,"x_max":0,"o":"m 890 772 b 607 985 890 906 790 985 l 233 985 b 228 968 231 985 225 968 l 353 968 b 360 963 360 968 361 967 l 63 22 b 53 17 63 18 58 17 l -72 17 b -76 0 -75 17 -81 0 l 343 0 b 347 17 346 0 350 17 l 222 17 b 215 22 217 17 214 18 l 368 504 l 499 504 b 657 426 604 504 657 482 b 589 104 657 368 589 182 b 749 -24 589 11 650 -24 b 889 7 810 -24 847 -15 b 882 22 892 8 886 24 b 796 1 857 6 833 1 b 733 79 756 1 733 32 b 788 344 733 139 788 268 b 565 511 788 438 732 508 b 890 772 778 524 890 643 z m 768 861 b 686 608 768 783 718 656 b 513 521 650 553 603 521 l 372 521 l 513 963 b 524 968 514 967 517 968 l 617 968 b 768 861 726 968 768 942 z "},"S":{"ha":758,"x_min":0,"x_max":0,"o":"m 772 1004 b 756 1004 774 1008 758 1010 b 696 972 747 986 731 972 b 519 1008 644 972 597 1008 b 217 700 344 1008 217 867 b 578 194 217 458 578 404 b 333 -7 578 88 506 -7 b 115 303 143 -7 68 153 b 99 303 117 307 100 307 l 10 10 b 26 10 10 7 25 7 b 92 39 38 32 56 39 b 329 -24 144 39 211 -24 b 671 303 543 -24 671 125 b 310 810 671 536 310 615 b 524 992 310 917 383 992 b 681 760 629 992 726 903 b 697 760 681 757 697 757 z "},"T":{"ha":863,"x_min":0,"x_max":0,"o":"m 1006 981 b 1003 985 1007 982 1007 985 l 201 985 b 196 981 197 985 196 982 l 108 704 b 126 704 108 701 125 701 b 476 968 179 872 275 968 l 508 968 b 515 963 514 968 517 965 l 219 22 b 208 17 218 18 215 17 l 85 17 b 79 0 82 17 76 0 l 499 0 b 504 17 501 0 507 17 l 379 17 b 372 22 372 17 371 18 l 668 963 b 678 968 668 965 672 968 l 713 968 b 900 694 918 968 950 854 b 915 694 899 692 915 692 z "},"U":{"ha":1040,"x_min":0,"x_max":0,"o":"m 1169 985 l 896 985 b 892 968 893 985 888 968 l 1010 968 b 1017 963 1015 968 1018 965 l 807 296 b 461 7 749 111 647 7 b 268 157 344 7 268 67 b 307 350 268 210 283 278 l 499 963 b 510 968 500 965 503 968 l 635 968 b 639 985 638 968 642 985 l 219 985 b 215 968 217 985 213 968 l 340 968 b 347 963 346 968 349 965 l 158 365 b 135 224 143 315 135 268 b 415 -24 135 81 219 -24 b 822 285 636 -24 761 93 l 1036 963 b 1046 968 1036 965 1040 968 l 1165 968 b 1169 985 1168 968 1174 985 z "},"V":{"ha":908,"x_min":0,"x_max":0,"o":"m 1174 985 l 881 985 b 876 968 876 985 874 968 l 1001 968 b 972 910 1013 968 1014 964 l 397 168 l 411 960 b 419 968 411 967 414 968 l 531 968 b 533 985 533 968 536 985 l 143 985 b 139 968 140 985 136 968 l 258 968 b 267 963 264 968 267 967 l 253 -19 b 272 -19 253 -25 268 -25 l 993 910 b 1056 968 1032 960 1044 968 l 1169 968 b 1174 985 1172 968 1176 985 z "},"W":{"ha":1306,"x_min":0,"x_max":0,"o":"m 1546 985 l 1271 985 b 1268 968 1268 985 1265 968 l 1383 968 b 1354 910 1393 968 1392 963 l 843 178 l 825 661 l 996 899 b 1064 968 1043 960 1050 968 l 1169 968 b 1174 985 1172 968 1176 985 l 136 985 b 133 968 133 985 131 968 l 258 968 b 267 963 264 968 267 967 l 304 -19 b 325 -19 304 -25 321 -25 l 688 475 l 707 -19 b 726 -19 708 -25 722 -25 l 1375 910 b 1422 968 1411 961 1417 968 l 1542 968 b 1546 985 1546 968 1549 985 z m 1015 968 b 988 913 1025 968 1025 961 l 822 688 l 813 963 b 821 968 813 967 815 968 z m 686 501 l 442 169 l 411 963 b 419 968 411 967 414 968 l 660 968 b 668 961 665 968 668 967 z "},"X":{"ha":901,"x_min":0,"x_max":0,"o":"m 1043 985 l 763 985 b 758 968 760 985 756 968 l 874 968 b 843 915 888 968 888 964 l 550 590 l 457 963 b 464 968 457 965 458 968 l 596 968 b 600 985 599 968 603 985 l 175 985 b 169 968 172 985 167 968 l 293 968 b 303 963 297 968 303 965 l 433 451 l 108 75 b 42 17 58 22 46 17 l -72 17 b -78 0 -75 17 -82 0 l 201 0 b 207 17 204 0 210 17 l 92 17 b 131 75 76 17 81 21 l 438 432 l 540 22 b 533 17 540 19 539 17 l 397 17 b 392 0 394 17 389 0 l 835 0 b 840 17 838 0 843 17 l 704 17 b 694 22 700 17 694 19 l 554 569 l 861 910 b 926 968 910 963 924 968 l 1039 968 b 1043 985 1042 968 1046 985 z "},"Y":{"ha":878,"x_min":0,"x_max":0,"o":"m 1078 985 l 797 985 b 792 968 794 985 789 968 l 918 968 b 883 910 928 968 926 964 l 542 475 l 449 963 b 456 968 449 965 450 968 l 606 968 b 611 985 610 968 614 985 l 161 985 b 157 968 158 985 154 968 l 285 968 b 294 963 290 968 294 965 l 393 457 l 256 22 b 244 17 254 18 250 17 l 119 17 b 115 0 117 17 113 0 l 535 0 b 539 17 538 0 542 17 l 414 17 b 407 22 408 17 406 18 l 544 453 l 904 910 b 964 968 946 963 956 968 l 1071 968 b 1078 985 1075 968 1081 985 z "},"Z":{"ha":893,"x_min":0,"x_max":0,"o":"m 957 985 l 318 985 b 313 982 315 985 313 983 l 221 693 b 238 693 219 690 236 690 b 592 968 288 854 404 968 l 776 968 b 781 963 782 968 782 964 l -36 15 b -37 0 -42 10 -42 0 l 667 0 b 672 4 669 0 671 1 l 758 278 b 742 278 760 282 743 282 b 336 17 697 136 586 17 l 143 17 b 139 21 138 17 138 19 l 956 969 b 957 985 961 975 961 985 z "},"[":{"ha":406,"x_min":0,"x_max":0,"o":"m 636 1024 l 357 1024 b 350 1019 354 1024 351 1022 l -76 -333 b -72 -339 -78 -337 -76 -339 l 208 -339 b 211 -322 211 -339 215 -322 l 53 -322 b 46 -318 47 -322 44 -321 l 463 1003 b 472 1008 464 1006 467 1008 l 633 1008 b 636 1024 636 1008 640 1024 z "},"\\":{"ha":497,"x_min":0,"x_max":0,"o":"m 414 -25 l -29 1054 b -43 1047 -31 1057 -44 1050 l 400 -32 b 414 -25 400 -35 415 -28 z "},"]":{"ha":406,"x_min":0,"x_max":0,"o":"m 467 1018 b 463 1024 468 1022 467 1024 l 182 1024 b 179 1007 179 1024 175 1007 l 338 1007 b 344 1003 343 1007 346 1006 l -72 -318 b -82 -324 -74 -321 -76 -324 l -243 -324 b -246 -339 -246 -324 -250 -339 l 33 -339 b 40 -335 36 -339 39 -337 z "},"^":{"ha":453,"x_min":0,"x_max":0,"o":"m 471 725 b 400 992 440 797 408 911 b 383 996 400 994 386 999 b 126 726 319 931 233 818 b 140 719 124 725 138 717 b 338 899 207 776 289 849 b 403 717 353 828 379 757 z "},"_":{"ha":769,"x_min":0,"x_max":0,"o":"m 694 0 b 694 17 697 0 697 17 l 33 17 b 33 0 31 17 31 0 z "},"‘":{"ha":251,"x_min":0,"x_max":0,"o":"m 406 999 b 406 1015 407 999 410 1015 b 138 760 257 986 138 850 b 199 692 138 729 156 692 b 272 769 244 692 272 725 b 243 865 272 810 243 828 b 349 981 243 921 300 957 b 406 999 364 988 383 994 z "},"a":{"ha":692,"x_min":0,"x_max":0,"o":"m 656 131 l 640 138 b 514 33 601 68 557 33 b 490 93 485 33 479 54 l 653 604 l 544 589 l 519 529 b 419 603 511 579 468 603 b 32 207 206 603 32 388 b 215 -12 32 97 81 -12 b 400 144 289 -12 354 44 b 483 -12 371 56 406 -12 b 656 131 533 -12 606 29 z m 508 493 l 426 236 b 229 11 372 100 314 11 b 129 133 153 11 129 61 b 301 544 129 250 200 468 b 419 586 335 569 361 586 b 508 493 476 586 510 551 z "},"b":{"ha":657,"x_min":0,"x_max":0,"o":"m 604 401 b 404 603 604 528 517 603 b 233 474 346 603 269 557 l 404 1021 b 403 1025 406 1024 406 1025 l 210 1019 b 204 1003 207 1019 201 1003 l 281 1006 b 288 1000 288 1006 289 1003 l 49 232 b 200 -12 3 86 65 -12 b 604 401 392 -12 604 185 z m 507 450 b 386 103 507 358 433 167 b 196 4 338 38 294 4 b 124 126 133 4 100 44 l 210 393 b 396 581 256 513 319 581 b 507 450 490 581 507 522 z "},"c":{"ha":568,"x_min":0,"x_max":0,"o":"m 542 478 b 381 603 542 539 475 603 b 32 221 196 603 32 419 b 251 -12 32 83 126 -12 b 490 125 344 -12 426 39 l 478 133 b 247 4 419 60 351 4 b 124 139 147 4 124 72 b 224 488 124 211 192 432 b 383 588 257 547 294 588 b 443 547 425 588 443 575 b 421 472 443 517 421 514 b 478 415 421 443 439 415 b 542 478 513 415 542 436 z "},"d":{"ha":678,"x_min":0,"x_max":0,"o":"m 783 1019 b 781 1024 783 1022 783 1024 l 589 1019 b 583 1003 586 1019 581 1003 l 660 1004 b 668 999 667 1004 668 1003 l 521 533 b 422 604 514 581 471 604 b 32 206 208 604 32 385 b 215 -12 32 96 81 -12 b 401 151 288 -12 356 51 b 483 -12 372 53 401 -12 b 656 129 533 -12 604 29 l 640 136 b 514 33 599 64 556 33 b 490 93 485 33 478 54 z m 508 493 l 431 250 b 229 11 383 122 310 11 b 129 131 153 11 129 58 b 303 546 129 247 201 468 b 419 588 335 569 361 588 b 508 493 482 588 515 551 z "},"e":{"ha":574,"x_min":0,"x_max":0,"o":"m 542 490 b 388 603 542 539 504 603 b 32 221 201 603 32 419 b 251 -12 32 83 126 -12 b 474 103 344 -12 408 26 l 464 114 b 247 4 410 50 353 4 b 124 139 147 4 124 72 b 156 303 124 182 135 228 l 247 303 b 542 490 421 303 542 379 z m 453 521 b 231 319 453 433 400 319 l 161 319 b 383 588 208 490 254 588 b 453 521 431 588 453 564 z "},"f":{"ha":392,"x_min":0,"x_max":0,"o":"m 679 915 b 539 1032 679 975 643 1032 b 225 682 404 1032 293 889 b 200 596 217 656 210 631 l 57 596 b 51 581 54 596 49 581 l 196 581 b 8 -133 136 368 68 57 b -157 -422 -61 -354 -87 -422 b -201 -379 -186 -422 -201 -407 b -176 -303 -201 -358 -176 -333 b -232 -256 -176 -276 -193 -256 b -296 -328 -267 -256 -296 -283 b -160 -439 -296 -393 -240 -439 b 124 -79 -17 -439 56 -289 b 306 581 175 74 246 360 l 467 581 b 472 596 471 581 475 596 l 310 596 b 340 706 321 638 331 671 b 536 1015 421 961 483 1015 b 585 969 572 1015 585 1000 b 560 890 585 949 560 921 b 615 844 560 864 576 844 b 679 915 650 844 679 871 z "},"g":{"ha":654,"x_min":0,"x_max":0,"o":"m 653 603 l 544 588 l 522 536 b 422 603 513 581 475 603 b 32 207 208 603 32 386 b 215 -12 32 97 81 -12 b 401 149 283 -12 351 43 l 371 54 b 78 -422 236 -374 185 -422 b -21 -368 6 -422 -21 -399 b 8 -324 -21 -344 -17 -329 b 53 -257 35 -317 53 -285 b -12 -192 53 -225 25 -192 b -97 -282 -62 -192 -97 -237 b 75 -439 -97 -354 -44 -439 b 463 3 264 -439 375 -276 z m 510 499 l 428 242 b 229 11 372 100 308 11 b 129 133 153 11 129 61 b 303 546 129 250 200 468 b 419 588 335 571 361 588 b 510 499 476 588 515 554 z "},"h":{"ha":688,"x_min":0,"x_max":0,"o":"m 665 129 l 649 136 b 522 33 606 60 565 33 b 481 86 493 33 481 54 b 607 493 481 175 607 376 b 513 603 607 574 553 603 b 217 374 431 603 299 519 l 421 1021 b 418 1025 422 1024 422 1025 l 226 1021 b 221 1004 224 1021 218 1004 l 297 1006 b 306 1000 304 1006 306 1004 l -10 0 l 100 0 l 201 322 b 436 536 293 478 381 536 b 499 476 469 536 499 511 b 378 86 499 350 378 197 b 488 -12 378 29 414 -12 b 665 129 538 -12 614 29 z "},"i":{"ha":361,"x_min":0,"x_max":0,"o":"m 367 886 b 296 956 367 925 335 956 b 225 886 257 956 225 925 b 296 815 225 846 257 815 b 367 886 335 815 367 846 z m 332 129 l 317 136 b 190 33 274 60 233 33 b 149 86 161 33 149 54 b 288 504 149 175 288 367 b 192 603 288 561 267 603 b 49 479 147 603 92 572 l 64 472 b 156 563 96 536 128 563 b 189 522 182 563 189 551 b 50 86 189 396 50 197 b 160 -12 50 29 86 -12 b 332 129 210 -12 282 29 z "},"j":{"ha":343,"x_min":0,"x_max":0,"o":"m 360 886 b 289 957 360 925 328 957 b 218 886 250 957 218 925 b 289 815 218 847 250 815 b 360 886 328 815 360 847 z m 261 375 b 199 604 322 540 289 604 b 56 479 154 604 99 574 l 71 472 b 163 563 103 538 135 563 b 192 497 189 563 204 536 l -7 -132 b -196 -422 -76 -354 -126 -422 b -233 -379 -225 -422 -233 -407 b -211 -306 -233 -358 -211 -335 b -267 -258 -211 -279 -226 -258 b -331 -331 -301 -258 -331 -285 b -199 -439 -331 -396 -279 -439 b 108 -110 -40 -439 43 -308 z "},"k":{"ha":643,"x_min":0,"x_max":0,"o":"m 619 529 b 533 603 619 575 592 603 b 213 357 400 603 383 368 l 421 1021 b 418 1025 421 1024 421 1025 l 226 1021 b 221 1004 222 1021 218 1004 l 297 1006 b 306 1000 304 1006 306 1004 l -10 0 l 99 0 l 207 339 b 453 -12 318 308 235 -12 b 614 129 558 -12 614 50 b 549 200 614 158 589 200 b 493 151 514 200 493 174 b 564 65 493 99 564 107 b 501 15 564 36 540 15 b 303 371 333 15 451 294 b 493 563 390 432 432 563 b 521 538 514 563 521 551 b 506 494 521 521 506 518 b 554 454 506 474 519 454 b 619 529 594 454 619 490 z "},"l":{"ha":357,"x_min":0,"x_max":0,"o":"m 436 1021 b 433 1025 436 1024 436 1025 l 240 1021 b 235 1004 238 1021 232 1004 l 313 1006 b 319 1000 318 1006 321 1004 l 54 157 b 135 -12 22 56 49 -12 b 307 129 185 -12 257 29 l 292 136 b 164 33 251 65 208 33 b 138 76 139 33 129 51 z "},"m":{"ha":1064,"x_min":0,"x_max":0,"o":"m 1042 129 l 1025 136 b 899 33 982 60 942 33 b 857 86 869 33 857 54 b 983 493 857 175 983 376 b 888 603 983 574 929 603 b 614 374 801 603 696 522 b 529 603 672 533 589 603 b 256 374 443 603 338 522 b 203 603 314 533 288 603 b 50 479 158 603 93 574 l 65 472 b 156 563 96 536 129 563 b 185 496 183 563 197 536 l 28 0 l 138 0 l 239 322 b 460 536 331 478 407 536 b 511 396 515 536 539 488 l 386 0 l 496 0 l 597 322 b 813 536 689 478 767 536 b 874 476 846 536 874 511 b 754 86 874 350 754 197 b 864 -12 754 29 790 -12 b 1042 129 914 -12 990 29 z "},"n":{"ha":725,"x_min":0,"x_max":0,"o":"m 703 129 l 686 136 b 561 33 644 60 604 33 b 519 86 532 33 519 54 b 644 493 519 175 644 376 b 550 603 644 574 590 603 b 254 374 468 603 336 519 b 203 603 314 533 288 603 b 49 479 158 603 92 574 l 65 472 b 157 563 96 536 129 563 b 186 496 183 563 199 536 l 28 0 l 138 0 l 239 322 b 475 536 331 478 419 536 b 536 476 508 536 536 511 b 415 86 536 350 415 197 b 525 -12 415 29 451 -12 b 703 129 575 -12 651 29 z "},"o":{"ha":664,"x_min":0,"x_max":0,"o":"m 604 371 b 386 603 604 508 511 603 b 32 221 200 603 32 419 b 250 -12 32 83 125 -12 b 604 371 436 -12 604 171 z m 514 451 b 414 103 514 379 444 158 b 247 4 379 43 335 4 b 122 139 146 4 122 72 b 222 488 122 211 192 432 b 389 588 256 547 300 588 b 514 451 490 588 514 519 z "},"p":{"ha":703,"x_min":0,"x_max":0,"o":"m 643 386 b 460 604 643 496 594 604 b 268 429 392 604 315 536 b 201 604 303 549 275 604 b 49 479 144 604 86 564 l 64 472 b 156 564 94 538 128 564 b 185 497 182 564 197 538 l -108 -426 l 1 -426 l 153 54 b 258 -12 164 11 204 -12 b 643 386 465 -12 643 207 z m 546 461 b 372 46 546 344 474 124 b 263 4 340 22 314 4 b 164 89 201 4 167 33 l 240 331 b 446 581 286 447 358 581 b 546 461 522 581 546 533 z "},"q":{"ha":656,"x_min":0,"x_max":0,"o":"m 653 604 l 544 589 l 519 529 b 422 603 513 578 469 603 b 32 207 208 603 32 388 b 215 -12 32 97 81 -12 b 403 156 286 -12 358 47 l 218 -428 l 328 -428 z m 508 493 l 425 231 b 229 10 375 106 310 10 b 129 133 153 10 129 61 b 301 544 129 250 200 468 b 419 586 335 569 361 586 b 508 493 478 586 511 550 z "},"r":{"ha":546,"x_min":0,"x_max":0,"o":"m 553 503 b 456 603 553 560 515 603 b 260 393 388 603 328 540 b 203 604 314 536 285 604 b 49 479 158 604 92 574 l 65 472 b 156 563 96 536 128 563 b 185 496 183 563 197 536 l 28 0 l 138 0 l 239 322 b 407 549 326 506 375 549 b 439 518 431 549 439 539 b 424 465 439 499 424 496 b 486 417 424 439 446 417 b 553 503 524 417 553 461 z "},"s":{"ha":499,"x_min":0,"x_max":0,"o":"m 460 496 b 321 603 460 556 406 603 b 122 415 200 603 122 499 b 303 122 122 275 303 254 b 176 4 303 53 257 4 b 79 60 99 4 79 32 b 124 140 79 97 124 78 b 67 192 124 163 104 192 b 3 118 29 192 3 156 b 172 -12 3 60 57 -12 b 390 176 332 -12 390 93 b 201 478 390 328 201 365 b 317 588 201 547 249 588 b 368 547 357 588 368 569 b 347 489 368 525 347 518 b 400 438 347 463 364 438 b 460 496 432 438 460 457 z "},"t":{"ha":363,"x_min":0,"x_max":0,"o":"m 404 596 l 300 596 l 365 807 l 254 799 l 192 596 l 90 596 b 85 581 86 596 82 581 l 186 581 l 53 157 b 133 -12 18 46 46 -12 b 306 129 183 -12 254 29 l 290 136 b 164 33 247 60 207 33 b 136 76 139 33 129 51 l 294 581 l 399 581 b 404 596 401 581 407 596 z "},"u":{"ha":711,"x_min":0,"x_max":0,"o":"m 681 129 l 665 136 b 539 32 622 60 582 32 b 513 76 514 32 504 51 l 676 599 l 564 590 l 463 268 b 226 49 369 107 288 49 b 160 113 192 49 160 78 b 286 504 160 239 286 393 b 192 603 286 556 264 603 b 49 479 149 603 92 574 l 64 472 b 157 563 96 536 128 563 b 189 522 179 563 189 553 b 57 117 189 432 57 233 b 171 -12 57 36 104 -12 b 446 211 253 -12 364 65 b 499 -12 388 56 415 -12 b 681 129 549 -12 631 29 z "},"v":{"ha":657,"x_min":0,"x_max":0,"o":"m 618 525 b 557 603 618 565 601 603 b 510 540 526 603 510 574 b 538 389 510 483 538 467 b 250 21 538 243 367 21 b 178 117 200 21 178 43 b 283 488 178 211 283 356 b 190 603 283 567 253 603 b 36 479 146 603 79 574 l 51 472 b 144 563 83 536 115 563 b 186 517 171 563 186 546 b 79 133 186 390 79 235 b 229 -12 79 26 140 -12 b 618 525 382 -12 618 315 z "},"w":{"ha":963,"x_min":0,"x_max":0,"o":"m 924 525 b 863 603 924 565 907 603 b 814 540 832 603 814 574 b 842 389 814 483 842 467 b 556 21 842 250 663 21 b 499 140 501 21 467 57 l 638 599 l 526 590 l 414 231 b 208 49 350 107 275 49 b 147 108 175 49 147 75 b 268 504 147 235 268 393 b 189 603 268 558 254 603 b 36 479 135 603 76 567 l 51 472 b 143 563 83 536 115 563 b 176 522 167 563 176 553 b 44 97 176 432 44 214 b 135 -12 44 17 93 -12 b 394 169 211 -12 332 56 b 525 -12 369 63 413 -12 b 924 525 678 -12 924 315 z "},"x":{"ha":650,"x_min":0,"x_max":0,"o":"m 644 522 b 567 603 644 564 625 603 b 346 363 488 603 414 507 b 219 603 314 525 294 603 b 74 478 172 603 124 575 l 89 467 b 163 539 117 521 136 539 b 258 296 200 539 221 504 b 271 231 263 271 267 249 b 94 31 201 83 136 31 b 60 65 71 31 60 47 b 75 113 60 83 75 92 b 29 153 75 131 58 153 b -40 71 -8 153 -40 117 b 56 -12 -40 22 -8 -12 b 278 211 138 -12 207 58 b 436 -12 317 53 364 -12 b 600 135 494 -12 564 32 l 585 140 b 490 51 553 76 528 51 b 357 307 442 51 389 124 b 353 332 356 317 354 322 b 514 553 413 464 481 553 b 544 526 536 553 544 543 b 531 479 544 507 531 499 b 575 439 531 457 544 439 b 644 522 606 439 644 468 z "},"y":{"ha":617,"x_min":0,"x_max":0,"o":"m 665 564 b 624 604 665 590 654 604 b 339 157 536 604 453 436 l 301 364 b 174 604 264 568 229 604 b 19 469 114 604 71 564 l 33 458 b 104 524 61 508 81 524 b 211 297 136 524 174 504 l 265 -21 b -53 -422 164 -260 94 -422 b -92 -382 -82 -422 -92 -410 b -67 -303 -92 -361 -67 -333 b -124 -256 -67 -276 -83 -256 b -189 -328 -158 -256 -189 -283 b -56 -439 -189 -396 -136 -439 b 308 36 104 -439 181 -276 b 615 513 463 411 494 475 b 665 564 642 519 665 535 z "},"z":{"ha":594,"x_min":0,"x_max":0,"o":"m 576 597 l 564 607 l 549 593 b 428 532 511 557 478 532 b 169 611 371 532 292 556 l 81 381 l 96 375 l 144 503 b 354 458 219 472 300 458 b 432 474 383 458 411 463 l -32 -3 l -19 -15 b 106 50 19 31 56 50 b 356 -12 186 50 272 -12 b 547 158 468 -12 547 60 b 450 276 547 224 514 276 b 386 214 413 276 386 253 b 429 171 386 190 403 171 b 500 192 467 171 481 192 b 528 150 518 192 528 183 b 415 40 528 97 492 40 b 157 138 356 40 263 138 b 119 132 139 138 132 136 z "},"{":{"ha":406,"x_min":0,"x_max":0,"o":"m 568 1025 l 558 1025 b 229 686 388 1025 229 894 b 226 429 229 565 226 529 b 186 361 226 389 204 365 b 169 358 181 360 174 358 b 136 363 154 358 147 363 b 124 350 129 363 124 354 b 132 338 124 346 126 338 b 167 342 144 338 151 342 b 181 339 171 342 175 340 b 194 317 190 336 194 331 b -22 -160 194 239 -22 49 b 160 -339 -22 -258 21 -339 l 181 -339 b 183 -322 183 -339 186 -322 l 163 -322 b 71 -231 83 -322 71 -289 b 238 275 71 -67 238 165 b 189 350 238 310 221 340 b 300 458 249 363 288 417 b 372 869 333 563 342 769 b 556 1008 406 971 461 1008 l 564 1008 b 568 1025 568 1008 571 1025 z "},"|":{"ha":218,"x_min":0,"x_max":0,"o":"m 118 -32 l 118 1050 b 101 1050 118 1053 101 1053 l 101 -32 b 118 -32 101 -35 118 -35 z "},"}":{"ha":406,"x_min":0,"x_max":0,"o":"m 414 844 b 232 1024 414 943 371 1024 l 211 1024 b 208 1007 208 1024 206 1007 l 229 1007 b 321 915 308 1007 321 974 b 154 410 321 751 154 519 b 203 335 154 375 171 344 b 92 226 143 322 104 268 b 19 -185 58 122 50 -85 b -164 -324 -14 -286 -69 -324 l -172 -324 b -176 -340 -176 -324 -179 -340 l -167 -340 b 163 -1 4 -340 163 -210 b 165 256 163 119 165 156 b 206 324 165 296 188 319 b 222 326 211 325 218 326 b 256 322 238 326 244 322 b 268 335 263 322 268 331 b 260 347 268 339 265 347 b 225 343 247 347 240 343 b 211 346 221 343 217 344 b 197 368 201 349 197 354 b 414 844 197 446 414 636 z "},"~":{"ha":606,"x_min":0,"x_max":0,"o":"m 589 575 b 572 575 589 578 572 578 b 483 476 572 531 546 476 b 235 565 421 476 328 565 b 72 408 160 565 72 497 b 89 408 72 406 89 406 b 178 507 89 454 115 507 b 426 418 240 507 333 418 b 589 575 501 418 589 486 z "},"¡":{"ha":383,"x_min":0,"x_max":0,"o":"m 360 479 b 307 535 360 513 336 535 b 222 444 263 535 222 492 b 275 388 222 411 244 388 b 360 479 319 388 360 432 z m 243 289 b 226 289 244 293 226 293 b -64 -439 149 43 -64 -365 b -11 -492 -64 -468 -46 -492 b 88 -400 25 -492 65 -469 b 243 289 118 -301 165 43 z "},"¢":{"ha":568,"x_min":0,"x_max":0,"o":"m 542 478 b 385 603 542 538 479 599 l 411 700 b 393 700 413 704 394 704 l 367 601 b 32 221 188 593 32 414 b 204 -7 32 100 104 13 b 178 -108 204 -8 178 -108 b 196 -108 176 -112 196 -112 b 222 -10 196 -108 222 -11 b 251 -12 232 -11 242 -12 b 490 125 344 -12 426 39 l 478 133 b 247 4 419 60 351 4 b 226 4 240 4 233 4 l 381 586 b 443 547 426 585 443 576 b 421 472 443 517 421 514 b 478 415 421 443 439 415 b 542 478 513 415 542 436 z m 363 586 l 208 7 b 124 139 140 24 124 82 b 224 488 124 211 192 432 b 363 586 254 543 288 581 z "},"£":{"ha":835,"x_min":0,"x_max":0,"o":"m 874 888 b 722 1008 874 954 824 1008 b 388 639 588 1008 425 846 b 375 499 378 588 375 543 l 217 499 b 214 482 214 499 211 482 l 375 482 b 276 138 375 310 343 208 b 142 153 240 144 196 153 b -11 49 44 153 -11 97 b 72 -24 -11 -4 36 -24 b 233 51 131 -24 181 4 b 511 -24 314 17 406 -24 b 736 176 625 -24 732 78 b 719 181 736 179 719 183 b 621 69 714 117 674 69 b 292 131 467 69 392 108 b 485 482 383 208 468 353 l 640 482 b 643 499 643 482 646 499 l 489 499 b 719 992 540 894 625 992 b 765 943 751 992 765 976 b 739 854 765 919 739 888 b 800 803 739 825 757 803 b 874 888 839 803 874 829 z m 214 58 b 75 -8 169 14 115 -8 b 6 46 43 -8 6 8 b 72 101 6 83 29 101 b 214 58 117 101 157 83 z "},"⁄":{"ha":685,"x_min":0,"x_max":0,"o":"m 594 1006 b 581 1014 596 1007 582 1017 l -49 -26 b -35 -36 -50 -29 -36 -39 z "},"¥":{"ha":843,"x_min":0,"x_max":0,"o":"m 1043 985 l 757 985 b 751 968 754 985 749 968 l 885 968 b 850 910 894 968 893 964 l 508 476 l 410 963 b 415 968 408 965 411 968 l 554 968 b 560 985 557 968 563 985 l 160 985 b 156 968 157 985 151 968 l 278 968 b 288 963 283 968 288 965 l 378 531 l 144 531 b 140 515 142 531 138 515 l 381 515 l 392 457 l 358 353 l 88 353 b 85 336 85 353 82 336 l 354 336 l 254 22 b 243 17 253 18 249 17 l 118 17 b 114 0 115 17 111 0 l 500 0 b 504 17 503 0 508 17 l 381 17 b 372 22 374 17 372 18 l 472 336 l 742 336 b 746 353 746 336 749 353 l 476 353 l 510 453 l 558 515 l 799 515 b 803 531 801 515 806 531 l 572 531 l 871 910 b 931 968 913 963 922 968 l 1038 968 b 1043 985 1040 968 1046 985 z "},"ƒ":{"ha":478,"x_min":0,"x_max":0,"o":"m 725 938 b 608 1035 725 996 688 1035 b 204 493 410 1035 250 796 l 201 471 b 192 467 201 468 197 467 l 67 467 b 64 450 64 467 61 450 l 189 450 b 197 444 196 450 199 449 b -112 -419 122 -49 67 -419 b -147 -383 -142 -419 -147 -411 b -126 -319 -147 -351 -126 -349 b -182 -272 -126 -293 -142 -272 b -247 -342 -219 -272 -247 -304 b -129 -439 -247 -404 -208 -439 b 322 422 140 -439 272 86 l 326 444 b 336 450 326 447 331 450 l 460 450 b 463 467 463 450 467 467 l 338 467 b 329 471 332 467 329 468 b 589 1015 394 963 501 1015 b 625 979 615 1015 625 1006 b 604 914 625 943 604 944 b 658 868 604 886 619 868 b 725 938 694 868 725 896 z "},"§":{"ha":717,"x_min":0,"x_max":0,"o":"m 792 851 b 579 1033 792 946 710 1033 b 276 740 394 1033 276 908 b 307 608 276 688 288 649 b 79 322 172 576 79 467 b 332 -224 79 94 332 -39 b 100 -424 332 -356 261 -424 b -129 -258 -33 -424 -129 -340 b -83 -197 -129 -222 -112 -197 b -7 -218 -43 -197 -40 -218 b 44 -156 22 -218 44 -199 b -25 -90 44 -117 13 -90 b -151 -251 -97 -90 -151 -153 b 100 -440 -151 -344 -50 -440 b 414 -135 335 -440 414 -287 b 388 -14 414 -87 404 -53 b 613 283 540 19 613 132 b 353 847 613 517 353 653 b 578 1017 353 954 443 1017 b 768 868 700 1017 768 943 b 732 803 768 831 760 803 b 663 822 696 803 693 822 b 617 765 638 822 617 804 b 676 710 617 731 643 710 b 792 851 739 710 792 756 z m 536 194 b 379 3 536 97 507 32 b 150 429 308 150 150 275 b 317 590 150 510 210 564 b 536 194 389 454 536 340 z "},"'":{"ha":251,"x_min":0,"x_max":0,"o":"m 322 958 b 276 1008 322 992 306 1008 b 228 964 254 1008 235 986 b 186 692 211 911 199 783 l 182 676 b 196 676 181 672 194 671 b 201 690 197 676 201 690 b 322 958 244 774 322 901 z "},"“":{"ha":460,"x_min":0,"x_max":0,"o":"m 614 999 b 614 1015 615 999 618 1015 b 346 760 465 986 346 850 b 407 692 346 729 364 692 b 481 769 453 692 481 725 b 451 865 481 810 451 828 b 557 981 451 921 508 957 b 614 999 572 988 592 994 z m 406 999 b 406 1015 407 999 410 1015 b 138 760 257 986 138 850 b 199 692 138 729 156 692 b 272 769 244 692 272 725 b 243 865 272 810 243 828 b 349 981 243 921 300 957 b 406 999 364 988 383 994 z "},"«":{"ha":601,"x_min":0,"x_max":0,"o":"m 585 518 b 564 521 586 524 565 528 b 300 307 529 413 344 326 b 297 301 297 306 296 303 b 421 71 331 282 456 179 b 442 67 419 64 440 61 b 401 293 469 154 443 242 b 585 518 479 338 557 431 z m 354 518 b 333 521 356 524 335 528 b 69 307 299 413 114 326 b 67 301 67 306 65 303 b 190 71 100 282 225 179 b 211 67 189 64 210 61 b 171 293 239 154 213 242 b 354 518 249 338 326 431 z "},"‹":{"ha":371,"x_min":0,"x_max":0,"o":"m 354 518 b 333 521 356 524 335 528 b 69 307 299 413 114 326 b 67 301 67 306 65 303 b 190 71 100 282 225 179 b 211 67 189 64 210 61 b 171 293 239 154 213 242 b 354 518 249 338 326 431 z "},"›":{"ha":371,"x_min":0,"x_max":0,"o":"m 303 288 b 179 518 269 307 144 410 b 158 522 181 524 160 528 b 199 296 131 435 157 347 b 15 71 121 251 43 158 b 36 67 14 65 35 61 b 300 282 71 176 256 263 b 303 288 303 283 304 286 z "},"ﬁ":{"ha":690,"x_min":0,"x_max":0,"o":"m 697 874 b 538 1032 697 967 644 1032 b 224 682 403 1032 290 889 b 199 596 215 656 208 631 l 56 596 b 50 581 53 596 47 581 l 193 581 b 7 -133 135 368 67 57 b -151 -422 -62 -354 -83 -422 b -190 -378 -182 -422 -190 -406 b -165 -300 -190 -357 -165 -331 b -221 -254 -165 -275 -181 -254 b -286 -331 -256 -254 -286 -286 b -156 -439 -286 -397 -236 -439 b 122 -79 -14 -439 54 -289 b 303 581 172 74 243 360 l 510 581 b 351 86 493 483 351 179 b 451 -12 351 29 378 -12 b 633 129 501 -12 583 29 l 618 136 b 492 33 575 60 526 33 b 450 86 463 33 450 54 b 639 615 450 151 588 458 b 628 619 640 619 631 624 b 508 596 610 601 603 596 l 308 596 b 339 706 319 638 328 671 b 535 1015 419 961 482 1015 b 615 946 592 1015 615 1001 b 571 846 615 906 571 890 b 629 793 571 811 590 793 b 697 874 665 793 697 829 z "},"ﬂ":{"ha":686,"x_min":0,"x_max":0,"o":"m 764 1026 b 751 1031 765 1031 756 1035 b 644 997 739 1017 719 997 b 549 1032 615 1022 589 1032 b 224 682 414 1032 290 889 b 199 596 214 656 207 631 l 54 596 b 50 581 51 596 46 581 l 193 581 b 7 -133 133 368 67 57 b -153 -422 -64 -354 -83 -422 b -190 -378 -182 -422 -190 -406 b -165 -300 -190 -357 -165 -331 b -221 -254 -165 -275 -182 -254 b -287 -331 -257 -254 -287 -286 b -157 -439 -287 -397 -237 -439 b 122 -79 -14 -439 53 -289 b 303 581 172 74 243 360 l 514 581 l 381 157 b 461 -12 349 56 375 -12 b 633 129 511 -12 582 29 l 618 136 b 492 33 575 60 526 33 b 464 76 467 33 456 51 z m 639 981 l 519 596 l 308 596 b 339 706 319 638 328 671 b 546 1015 419 961 493 1015 b 639 981 589 1015 606 1008 z "},"–":{"ha":769,"x_min":0,"x_max":0,"o":"m 715 319 b 715 336 718 319 718 336 l 54 336 b 54 319 51 336 51 319 z "},"†":{"ha":797,"x_min":0,"x_max":0,"o":"m 779 531 b 636 660 779 588 742 660 b 456 560 557 660 501 633 b 544 790 474 607 544 710 b 540 850 544 806 540 822 b 614 982 540 915 614 903 b 563 1033 614 1013 593 1033 b 478 949 515 1033 478 993 b 497 879 478 899 497 904 b 435 771 497 851 451 818 b 397 571 411 703 410 619 b 268 668 388 639 333 668 b 64 525 119 668 64 574 b 113 478 64 496 85 478 b 178 550 165 478 178 514 b 264 651 178 625 208 651 b 375 476 364 651 410 585 b 293 381 354 408 308 386 b 289 364 288 378 285 363 b 107 -439 351 390 274 88 b 124 -442 107 -442 124 -446 b 444 351 290 83 399 376 b 451 367 450 349 457 365 b 433 476 439 372 411 408 b 629 643 465 578 526 643 b 689 592 671 643 689 628 b 658 499 689 550 658 544 b 711 458 658 471 682 458 b 779 531 750 458 779 485 z "},"‡":{"ha":796,"x_min":0,"x_max":0,"o":"m 803 597 b 656 718 803 646 764 718 b 494 632 579 718 526 678 b 546 790 508 676 546 724 b 542 850 546 806 542 822 b 617 982 542 915 617 903 b 564 1033 617 1013 596 1033 b 481 949 518 1033 481 993 b 500 879 481 899 500 904 b 438 772 500 851 456 817 b 415 639 418 726 415 688 b 290 726 411 688 367 726 b 89 588 142 726 89 636 b 138 540 89 558 108 540 b 203 614 190 540 203 578 b 286 710 203 689 231 710 b 396 553 375 710 426 661 b 322 458 375 478 339 465 b 321 443 317 457 315 442 b 344 299 379 465 368 375 b 226 164 319 222 274 136 b 221 149 224 167 217 150 b 240 51 233 142 261 126 b 53 -108 215 -36 140 -108 b -10 -61 8 -108 -10 -99 b 22 29 -10 -19 22 -18 b -29 69 22 57 -1 69 b -99 -4 -69 69 -99 42 b 49 -125 -99 -53 -61 -125 b 210 -39 125 -125 176 -85 b 157 -199 196 -83 157 -131 b 163 -257 157 -212 163 -231 b 88 -389 163 -322 88 -310 b 140 -440 88 -419 108 -440 b 224 -356 186 -440 224 -401 b 204 -286 224 -306 204 -311 b 267 -179 204 -258 249 -224 b 288 -46 286 -133 288 -94 b 413 -133 293 -94 338 -133 b 615 6 563 -133 615 -43 b 567 51 615 33 596 51 b 501 -21 514 51 501 15 b 418 -117 501 -96 474 -117 b 308 40 328 -117 278 -68 b 382 133 329 115 365 128 b 383 150 388 136 388 151 b 360 294 325 128 336 218 b 476 428 385 371 429 457 b 483 444 481 426 488 442 b 464 542 471 451 442 467 b 650 701 489 629 563 701 b 714 654 696 701 714 690 b 682 564 714 613 682 611 b 733 524 682 536 704 524 b 803 597 774 524 803 550 z "},"·":{"ha":251,"x_min":0,"x_max":0,"o":"m 218 508 b 165 565 218 542 196 565 b 81 474 121 565 81 521 b 133 418 81 440 103 418 b 218 508 178 418 218 461 z "},"¶":{"ha":897,"x_min":0,"x_max":0,"o":"m 1063 983 l 744 983 b 110 378 447 983 110 696 b 471 0 110 158 272 0 l 753 0 b 757 17 756 0 761 17 l 639 17 b 632 22 633 17 631 18 l 929 963 b 939 968 931 965 933 968 l 1058 968 b 1063 983 1061 968 1065 983 z m 910 963 l 613 21 b 601 17 611 18 608 17 l 476 17 b 469 21 471 17 468 18 l 767 963 b 776 967 767 965 771 967 l 903 967 b 910 963 908 967 911 965 z "},"•":{"ha":479,"x_min":0,"x_max":0,"o":"m 419 492 b 275 638 419 572 354 638 b 129 492 194 638 129 572 b 275 347 129 413 194 347 b 419 492 354 347 419 413 z "},"‚":{"ha":272,"x_min":0,"x_max":0,"o":"m 165 61 b 104 129 165 92 147 129 b 31 51 58 129 31 96 b 60 -44 31 11 60 -7 b -46 -160 60 -100 3 -136 b -103 -178 -61 -167 -81 -174 b -103 -194 -104 -178 -107 -194 b 165 61 46 -165 165 -29 z "},"„":{"ha":481,"x_min":0,"x_max":0,"o":"m 374 61 b 313 129 374 92 356 129 b 239 51 267 129 239 96 b 268 -44 239 11 268 -7 b 163 -160 268 -100 211 -136 b 106 -178 147 -167 128 -174 b 106 -194 104 -178 101 -194 b 374 61 254 -165 374 -29 z m 165 61 b 104 129 165 92 147 129 b 31 51 58 129 31 96 b 60 -44 31 11 60 -7 b -46 -160 60 -100 3 -136 b -103 -178 -61 -167 -81 -174 b -103 -194 -104 -178 -107 -194 b 165 61 46 -165 165 -29 z "},"”":{"ha":460,"x_min":0,"x_max":0,"o":"m 565 940 b 504 1008 565 971 547 1008 b 431 931 458 1008 431 975 b 460 835 431 890 460 872 b 354 719 460 779 403 743 b 297 701 339 713 319 706 b 297 685 296 701 293 685 b 565 940 446 714 565 850 z m 357 940 b 296 1008 357 971 339 1008 b 222 931 250 1008 222 975 b 251 835 222 890 251 872 b 146 719 251 779 194 743 b 89 701 131 713 111 706 b 89 685 88 701 85 685 b 357 940 238 714 357 850 z "},"»":{"ha":601,"x_min":0,"x_max":0,"o":"m 533 288 b 410 518 500 307 375 410 b 389 522 411 524 390 528 b 429 296 361 435 388 347 b 246 71 351 251 274 158 b 267 67 244 65 265 61 b 531 282 301 176 486 263 b 533 288 533 283 535 286 z m 303 288 b 179 518 269 307 144 410 b 158 522 181 524 160 528 b 199 296 131 435 157 347 b 15 71 121 251 43 158 b 36 67 14 65 35 61 b 300 282 71 176 256 263 b 303 288 303 283 304 286 z "},"…":{"ha":858,"x_min":0,"x_max":0,"o":"m 753 72 b 700 129 753 106 731 129 b 615 38 656 129 615 85 b 668 -18 615 4 638 -18 b 753 72 713 -18 753 25 z m 460 72 b 407 129 460 106 438 129 b 322 38 363 129 322 85 b 375 -18 322 4 344 -18 b 460 72 419 -18 460 25 z m 167 72 b 114 129 167 106 144 129 b 29 38 69 129 29 85 b 82 -18 29 4 51 -18 b 167 72 126 -18 167 25 z "},"‰":{"ha":1492,"x_min":0,"x_max":0,"o":"m 1460 306 b 1300 481 1460 415 1392 481 b 992 163 1124 481 992 306 b 1151 -12 992 53 1060 -12 b 1460 306 1328 -12 1460 163 z m 543 815 b 385 990 543 925 476 990 b 76 672 208 990 76 815 b 236 497 76 563 144 497 b 543 815 413 497 543 672 z m 822 1007 b 807 1017 824 1010 808 1019 l 207 -24 b 221 -33 206 -26 219 -36 z m 951 306 b 792 481 951 415 883 481 b 483 163 615 481 483 306 b 643 -12 483 53 551 -12 b 951 306 819 -12 951 163 z m 1375 369 b 1247 29 1375 286 1338 90 b 1156 4 1218 10 1189 4 b 1078 99 1097 4 1078 32 b 1206 439 1078 182 1115 378 b 1297 464 1235 458 1263 464 b 1375 369 1357 464 1375 436 z m 460 879 b 332 539 460 796 422 600 b 239 514 304 519 274 514 b 163 608 181 514 163 542 b 290 949 163 692 199 888 b 382 974 318 968 349 974 b 460 879 440 974 460 946 z m 867 369 b 739 29 867 286 831 90 b 647 4 710 10 681 4 b 569 99 589 4 569 32 b 696 439 569 182 607 378 b 789 464 725 458 754 464 b 867 369 847 464 867 436 z "},"¿":{"ha":633,"x_min":0,"x_max":0,"o":"m 610 479 b 557 535 610 513 588 535 b 472 444 513 535 472 492 b 525 388 472 411 494 388 b 610 479 569 388 610 432 z m 492 289 b 475 289 493 293 476 293 l 397 43 b 308 82 385 67 344 82 b -33 -257 125 82 -33 -68 b 188 -490 -33 -382 63 -490 b 418 -315 322 -490 418 -387 b 351 -243 418 -276 390 -243 b 286 -296 307 -243 286 -267 b 304 -368 286 -331 304 -328 b 183 -475 304 -442 275 -475 b 56 -344 113 -475 56 -436 b 151 -15 56 -278 124 -67 b 311 65 186 43 224 65 b 393 17 346 65 385 49 b 410 19 393 11 408 17 b 411 26 411 21 410 24 z "},"`":{"ha":492,"x_min":0,"x_max":0,"o":"m 514 710 b 292 963 315 761 358 963 b 240 907 263 963 240 939 b 510 694 240 836 307 743 b 514 710 513 693 517 710 z "},"´":{"ha":492,"x_min":0,"x_max":0,"o":"m 500 913 b 456 956 500 938 483 956 b 135 722 386 956 369 767 b 133 706 132 721 129 706 b 500 913 407 756 500 854 z "},"ˆ":{"ha":453,"x_min":0,"x_max":0,"o":"m 471 725 b 400 992 440 797 408 911 b 383 996 400 994 386 999 b 126 726 319 931 233 818 b 140 719 124 725 138 717 b 338 899 207 776 289 849 b 403 717 353 828 379 757 z "},"˜":{"ha":564,"x_min":0,"x_max":0,"o":"m 651 922 b 635 922 651 925 635 925 b 546 824 635 878 608 824 b 297 913 483 824 390 913 b 135 756 224 913 135 844 b 151 756 135 753 151 753 b 240 856 151 801 178 856 b 489 765 303 856 396 765 b 651 922 564 765 651 833 z "},"¯":{"ha":556,"x_min":0,"x_max":0,"o":"m 632 824 b 632 851 635 831 635 844 l 188 851 b 188 824 185 844 185 831 z "},"˘":{"ha":528,"x_min":0,"x_max":0,"o":"m 681 958 b 664 958 682 963 665 963 b 451 811 649 910 597 811 b 317 958 306 811 301 910 b 300 958 318 963 301 963 b 433 743 272 871 283 743 b 681 958 582 743 653 871 z "},"˙":{"ha":343,"x_min":0,"x_max":0,"o":"m 338 829 b 293 876 338 857 318 876 b 221 799 256 876 221 839 b 265 751 221 771 240 751 b 338 829 303 751 338 789 z "},"¨":{"ha":610,"x_min":0,"x_max":0,"o":"m 604 829 b 560 876 604 857 585 876 b 488 799 521 876 488 839 b 532 751 488 771 506 751 b 604 829 569 751 604 789 z m 338 829 b 293 876 338 857 318 876 b 221 799 256 876 221 839 b 265 751 221 771 240 751 b 338 829 303 751 338 789 z "},"˚":{"ha":393,"x_min":0,"x_max":0,"o":"m 432 872 b 347 957 432 922 396 957 b 213 821 276 957 213 894 b 297 736 213 771 249 736 b 432 872 368 736 432 800 z m 414 869 b 301 753 414 808 358 753 b 231 824 263 753 231 779 b 343 940 231 885 286 940 b 414 869 382 940 414 913 z "},"¸":{"ha":401,"x_min":0,"x_max":0,"o":"m 150 -206 b 92 -56 150 -132 92 -118 b 115 -15 92 -35 107 -21 b 103 -6 119 -12 106 -3 b 43 -104 83 -18 43 -58 b 114 -236 43 -167 114 -196 b 44 -294 114 -271 94 -294 b -7 -254 13 -294 -7 -276 b 18 -211 -7 -240 18 -235 b -11 -178 18 -190 6 -178 b -51 -224 -33 -178 -51 -201 b 46 -311 -51 -271 -17 -311 b 150 -206 99 -311 150 -268 z "},"˝":{"ha":817,"x_min":0,"x_max":0,"o":"m 769 913 b 725 956 769 938 753 956 b 404 722 656 956 639 767 b 403 706 401 721 399 706 b 769 913 676 756 769 854 z m 500 913 b 456 956 500 938 483 956 b 135 722 386 956 369 767 b 133 706 132 721 129 706 b 500 913 407 756 500 854 z "},"˛":{"ha":379,"x_min":0,"x_max":0,"o":"m 197 -11 b 194 4 200 -11 197 4 b -40 -181 43 -21 -40 -99 b 78 -285 -40 -242 7 -285 b 179 -249 114 -285 153 -269 b 178 -232 182 -247 181 -229 b 121 -249 160 -242 138 -249 b 26 -169 56 -249 26 -224 b 197 -11 26 -76 100 -37 z "},"ˇ":{"ha":453,"x_min":0,"x_max":0,"o":"m 576 978 b 563 985 579 979 565 988 b 365 806 496 928 414 856 b 300 988 350 876 324 947 l 232 979 b 303 713 263 907 294 793 b 319 708 303 710 317 706 b 576 978 383 774 469 886 z "},"—":{"ha":1431,"x_min":0,"x_max":0,"o":"m 1378 319 b 1378 336 1381 319 1381 336 l 54 336 b 54 319 51 336 51 319 z "},"Æ":{"ha":1235,"x_min":0,"x_max":0,"o":"m 1278 981 b 1276 985 1279 982 1279 985 l 544 985 b 539 968 542 985 536 968 l 693 968 l -32 75 b -107 17 -71 28 -81 17 l -197 17 b -201 0 -200 17 -204 0 l 81 0 b 85 17 83 0 88 17 l -37 17 b -10 75 -49 17 -47 29 l 236 376 l 515 376 l 404 22 b 393 17 403 18 400 17 l 268 17 b 264 0 265 17 261 0 l 1040 0 b 1046 4 1043 0 1044 3 l 1132 279 b 1114 279 1132 282 1115 282 b 710 17 1069 136 958 17 l 564 17 b 556 22 557 17 556 18 l 711 511 l 775 511 b 886 343 889 511 917 439 b 904 343 885 340 903 340 l 1004 665 b 988 665 1006 668 988 668 b 779 528 957 569 893 528 l 715 528 l 853 963 b 864 968 854 967 857 968 l 1025 968 b 1190 733 1190 968 1233 867 b 1208 733 1190 731 1207 731 z m 694 943 l 521 393 l 249 393 z "},"ª":{"ha":483,"x_min":0,"x_max":0,"o":"m 551 661 l 536 667 b 451 586 506 608 481 586 b 435 618 433 586 429 599 l 549 1014 l 463 1004 l 450 963 b 385 1014 446 999 419 1014 b 110 717 240 1014 110 849 b 242 549 110 631 153 549 b 365 660 288 549 333 586 b 418 549 350 592 372 549 b 551 661 464 549 517 582 z m 440 926 l 381 722 b 250 569 353 643 307 569 b 185 654 203 569 185 594 b 313 975 185 740 243 918 b 383 997 333 993 361 997 b 440 926 425 997 444 969 z "},"Ø":{"ha":1008,"x_min":0,"x_max":0,"o":"m 982 639 b 888 913 982 756 947 849 b 971 1013 921 953 971 1013 b 957 1021 972 1014 960 1024 b 875 924 957 1021 886 938 b 646 1008 817 978 738 1008 b 68 347 350 1008 68 681 b 163 74 68 231 103 136 l 79 -26 b 92 -36 76 -29 90 -39 l 175 63 b 406 -24 233 7 313 -24 b 982 639 701 -24 982 306 z m 847 890 l 194 111 b 181 197 185 136 181 164 b 386 850 181 361 325 753 b 646 992 453 957 544 992 b 847 890 742 992 815 960 z m 869 788 b 665 135 869 624 726 233 b 406 -7 599 28 507 -7 b 201 94 308 -7 235 25 b 856 875 201 94 856 876 b 869 788 865 851 869 821 z "},"Œ":{"ha":1361,"x_min":0,"x_max":0,"o":"m 1406 981 b 1403 985 1407 982 1406 985 l 697 985 b 68 378 400 985 68 696 b 431 0 68 160 231 0 l 1168 0 b 1172 4 1171 0 1172 3 l 1258 279 b 1242 279 1260 282 1243 282 b 838 17 1197 136 1086 17 l 690 17 b 683 22 685 17 682 18 l 838 511 l 901 511 b 1014 343 1015 511 1044 439 b 1031 343 1014 340 1031 340 l 1132 665 b 1115 665 1133 668 1117 668 b 907 528 1085 569 1021 528 l 843 528 l 981 963 b 990 968 981 967 985 968 l 1153 968 b 1319 733 1318 968 1361 867 b 1336 733 1318 731 1335 731 z m 828 963 l 531 22 b 521 17 531 18 526 17 l 432 17 b 190 232 246 17 190 126 b 357 800 190 389 296 707 b 699 968 435 919 561 968 l 821 968 b 828 963 826 968 829 967 z "},"º":{"ha":486,"x_min":0,"x_max":0,"o":"m 515 836 b 361 1014 515 938 444 1014 b 111 726 236 1014 111 872 b 265 549 111 625 182 549 b 515 836 392 549 515 690 z m 436 904 b 368 629 436 850 389 671 b 264 565 344 586 313 565 b 192 658 210 565 192 596 b 260 933 192 713 239 892 b 364 997 282 976 315 997 b 436 904 418 997 436 967 z "},"æ":{"ha":910,"x_min":0,"x_max":0,"o":"m 883 490 b 729 604 883 539 846 604 b 482 488 636 604 549 558 b 290 604 453 558 376 604 b 144 490 206 604 144 547 b 204 432 144 451 172 432 b 257 485 240 432 257 458 b 236 542 257 514 236 519 b 294 588 236 567 260 588 b 403 482 369 588 403 550 b 371 306 403 444 394 393 l 297 306 b 1 121 85 306 1 206 b 175 -12 1 44 58 -12 b 393 104 264 -12 336 33 b 593 -12 429 32 507 -12 b 817 103 686 -12 751 26 l 806 114 b 590 4 751 50 694 4 b 465 139 489 4 465 72 b 497 301 465 182 476 228 l 589 301 b 883 490 763 301 883 379 z m 796 521 b 574 318 796 433 742 318 l 503 318 b 725 588 550 489 597 588 b 796 521 774 588 796 564 z m 364 289 b 178 4 318 125 300 4 b 93 103 118 4 93 33 b 326 289 93 190 157 289 z "},"ı":{"ha":361,"x_min":0,"x_max":0,"o":"m 332 129 l 317 136 b 190 33 274 60 233 33 b 149 86 161 33 149 54 b 288 504 149 175 288 367 b 192 603 288 561 267 603 b 49 479 147 603 92 572 l 64 472 b 156 563 96 536 128 563 b 189 522 182 563 189 551 b 50 86 189 396 50 197 b 160 -12 50 29 86 -12 b 332 129 210 -12 282 29 z "},"ø":{"ha":664,"x_min":0,"x_max":0,"o":"m 604 371 b 540 540 604 439 579 499 b 599 608 551 553 599 608 b 586 617 600 610 588 619 l 528 550 b 386 603 492 585 442 603 b 32 221 200 603 32 419 b 96 51 32 151 56 92 l 36 -15 b 50 -25 35 -18 49 -28 l 106 42 b 250 -12 143 7 193 -12 b 604 371 436 -12 604 171 z m 501 519 l 128 90 b 122 139 124 106 122 122 b 222 488 122 211 192 432 b 389 588 256 547 300 588 b 501 519 454 588 486 558 z m 514 451 b 414 103 514 379 444 158 b 247 4 379 43 335 4 b 133 72 181 4 149 33 l 508 503 b 514 451 513 486 514 468 z "},"œ":{"ha":982,"x_min":0,"x_max":0,"o":"m 958 490 b 804 604 958 539 921 604 b 567 497 717 604 632 563 b 381 604 529 563 461 604 b 26 221 194 604 26 419 b 244 -12 26 83 119 -12 b 482 93 332 -12 417 29 b 668 -12 519 28 588 -12 b 892 103 763 -12 826 26 l 882 114 b 665 4 826 50 771 4 b 540 139 564 4 540 72 b 574 303 540 182 551 229 l 664 303 b 958 490 839 303 958 379 z m 871 521 b 649 319 871 433 818 319 l 578 319 b 801 588 625 490 672 588 b 871 521 849 588 871 564 z m 507 451 b 408 103 507 379 439 158 b 242 4 374 43 329 4 b 117 139 140 4 117 72 b 217 488 117 213 185 432 b 383 588 250 547 294 588 b 507 451 485 588 507 519 z "},"ß":{"ha":707,"x_min":0,"x_max":0,"o":"m 703 878 b 521 1032 703 976 636 1032 b 197 682 386 1032 267 897 b -19 -133 150 538 35 39 b -181 -422 -90 -354 -111 -422 b -218 -378 -210 -422 -218 -406 b -193 -300 -218 -357 -193 -331 b -249 -254 -193 -275 -210 -254 b -312 -325 -283 -254 -312 -281 b -183 -439 -312 -392 -264 -439 b 96 -79 -40 -439 26 -289 b 313 706 146 74 267 560 b 515 1015 390 960 463 1015 b 608 908 594 1015 608 985 b 364 558 608 772 517 624 b 369 544 360 557 364 542 b 425 560 392 556 410 560 b 556 435 517 560 556 513 b 460 99 556 365 489 151 b 329 4 425 39 396 4 b 294 43 306 4 294 18 b 315 110 294 61 315 83 b 267 151 315 132 301 151 b 210 82 236 151 210 125 b 324 -12 210 25 260 -12 b 640 353 471 -12 640 157 b 461 574 640 488 557 574 b 422 572 444 574 438 575 b 703 878 567 624 703 735 z "},"Ä":{"ha":893,"x_min":0,"x_max":0,"o":"m 826 17 l 697 17 b 689 22 692 17 689 18 l 689 1004 b 669 1004 689 1008 674 1010 l -33 75 b -99 17 -71 25 -83 17 l -199 17 b -203 0 -201 17 -206 0 l 78 0 b 82 17 81 0 85 17 l -39 17 b -11 75 -51 17 -51 24 l 186 336 l 544 336 l 544 22 b 536 17 544 18 542 17 l 429 17 b 425 0 425 17 421 0 l 822 0 b 826 17 825 0 829 17 z m 544 353 l 200 353 l 544 808 z m 914 1183 b 869 1231 914 1211 894 1231 b 797 1153 831 1231 797 1193 b 842 1106 797 1125 815 1106 b 914 1183 879 1106 914 1143 z m 647 1183 b 603 1231 647 1211 628 1231 b 531 1153 565 1231 531 1193 b 575 1106 531 1125 550 1106 b 647 1183 613 1106 647 1143 z "},"Å":{"ha":893,"x_min":0,"x_max":0,"o":"m 826 17 l 697 17 b 689 22 692 17 689 18 l 689 990 b 811 1125 753 996 811 1057 b 726 1211 811 1176 775 1211 b 592 1075 656 1211 592 1147 b 660 992 592 1031 621 997 l -33 75 b -99 17 -71 25 -83 17 l -199 17 b -203 0 -201 17 -206 0 l 78 0 b 82 17 81 0 85 17 l -39 17 b -11 75 -51 17 -51 24 l 186 336 l 544 336 l 544 22 b 536 17 544 18 542 17 l 429 17 b 425 0 425 17 421 0 l 822 0 b 826 17 825 0 829 17 z m 793 1124 b 681 1007 793 1063 738 1007 b 610 1076 642 1007 610 1033 b 722 1193 610 1139 665 1193 b 793 1124 761 1193 793 1167 z m 544 353 l 200 353 l 544 808 z "},"Ç":{"ha":867,"x_min":0,"x_max":0,"o":"m 949 1004 b 932 1004 950 1007 933 1007 b 849 963 921 982 899 963 b 646 1008 783 963 724 1008 b 68 346 350 1008 68 679 b 411 -24 68 96 231 -29 b 365 -111 392 -42 365 -74 b 436 -243 365 -174 436 -203 b 367 -300 436 -278 417 -300 b 315 -261 335 -300 315 -282 b 342 -217 315 -247 342 -240 b 311 -185 342 -197 329 -185 b 272 -231 289 -185 272 -207 b 369 -317 272 -278 307 -317 b 472 -212 421 -317 472 -275 b 415 -62 472 -139 415 -125 b 436 -24 415 -43 428 -29 b 803 222 574 -11 700 76 b 790 233 804 225 793 236 b 406 -8 679 75 553 -8 b 181 196 272 -8 181 51 b 383 849 181 361 322 751 b 646 992 446 950 533 992 b 844 729 775 992 888 867 b 861 729 844 726 861 726 z "},"É":{"ha":911,"x_min":0,"x_max":0,"o":"m 938 981 b 935 985 938 982 938 985 l 233 985 b 228 968 231 985 225 968 l 353 968 b 360 963 358 968 361 967 l 63 22 b 51 17 61 18 58 17 l -72 17 b -78 0 -76 17 -81 0 l 699 0 b 704 4 701 0 703 1 l 790 279 b 774 279 792 282 775 282 b 368 17 729 136 618 17 l 222 17 b 214 22 215 17 214 18 l 369 511 l 433 511 b 546 343 547 511 576 438 b 563 343 544 340 563 340 l 664 665 b 646 665 664 668 647 668 b 439 528 617 569 553 528 l 375 528 l 511 963 b 522 968 513 967 517 968 l 685 968 b 850 733 850 968 893 867 b 867 733 850 729 867 729 z m 892 1267 b 847 1310 892 1292 875 1310 b 526 1076 778 1310 761 1121 b 525 1060 524 1075 521 1060 b 892 1267 799 1110 892 1208 z "},"Ñ":{"ha":1033,"x_min":0,"x_max":0,"o":"m 1154 985 l 881 985 b 875 968 878 985 872 968 l 994 968 b 1001 963 1000 968 1003 967 l 768 218 l 531 960 b 507 985 524 979 517 985 l 239 985 b 235 968 236 985 231 968 l 353 968 b 360 963 358 968 361 967 l 63 22 b 53 17 63 18 58 17 l -67 17 b -72 0 -69 17 -75 0 l 201 0 b 207 17 204 0 210 17 l 88 17 b 81 22 82 17 79 18 l 371 943 l 692 -18 b 711 -18 694 -24 710 -22 l 1019 963 b 1031 968 1021 967 1024 968 l 1149 968 b 1154 985 1151 968 1157 985 z m 1001 1276 b 985 1276 1001 1279 985 1279 b 896 1178 985 1232 958 1178 b 647 1267 833 1178 740 1267 b 485 1110 574 1267 485 1199 b 501 1110 485 1107 501 1107 b 590 1210 501 1156 528 1210 b 839 1119 653 1210 746 1119 b 1001 1276 914 1119 1001 1188 z "},"Ö":{"ha":1008,"x_min":0,"x_max":0,"o":"m 982 639 b 646 1008 982 869 846 1008 b 68 347 350 1008 68 681 b 406 -24 68 117 206 -24 b 982 639 701 -24 982 306 z m 869 788 b 665 135 869 624 726 233 b 406 -7 599 28 507 -7 b 181 197 268 -7 181 57 b 386 850 181 361 325 753 b 646 992 453 957 544 992 b 869 788 783 992 869 929 z m 908 1183 b 864 1231 908 1211 889 1231 b 792 1153 825 1231 792 1193 b 836 1106 792 1125 810 1106 b 908 1183 874 1106 908 1143 z m 642 1183 b 597 1231 642 1211 622 1231 b 525 1153 560 1231 525 1193 b 569 1106 525 1125 544 1106 b 642 1183 607 1106 642 1143 z "},"Ü":{"ha":1040,"x_min":0,"x_max":0,"o":"m 1169 985 l 896 985 b 892 968 893 985 888 968 l 1010 968 b 1017 963 1015 968 1018 965 l 807 296 b 461 7 749 111 647 7 b 268 157 344 7 268 67 b 307 350 268 210 283 278 l 499 963 b 510 968 500 965 503 968 l 635 968 b 639 985 638 968 642 985 l 219 985 b 215 968 217 985 213 968 l 340 968 b 347 963 346 968 349 965 l 158 365 b 135 224 143 315 135 268 b 415 -24 135 81 219 -24 b 822 285 636 -24 761 93 l 1036 963 b 1046 968 1036 965 1040 968 l 1165 968 b 1169 985 1168 968 1174 985 z m 996 1183 b 951 1231 996 1211 976 1231 b 879 1153 913 1231 879 1193 b 924 1106 879 1125 897 1106 b 996 1183 961 1106 996 1143 z m 729 1183 b 685 1231 729 1211 710 1231 b 613 1153 647 1231 613 1193 b 657 1106 613 1125 632 1106 b 729 1183 694 1106 729 1143 z "},"á":{"ha":692,"x_min":0,"x_max":0,"o":"m 656 131 l 640 138 b 514 33 601 68 557 33 b 490 93 485 33 479 54 l 653 604 l 544 589 l 519 529 b 419 603 511 579 468 603 b 32 207 206 603 32 388 b 215 -12 32 97 81 -12 b 400 144 289 -12 354 44 b 483 -12 371 56 406 -12 b 656 131 533 -12 606 29 z m 508 493 l 426 236 b 229 11 372 100 314 11 b 129 133 153 11 129 61 b 301 544 129 250 200 468 b 419 586 335 569 361 586 b 508 493 476 586 510 551 z m 688 913 b 643 956 688 938 671 956 b 322 722 574 956 557 767 b 321 706 319 721 317 706 b 688 913 594 756 688 854 z "},"à":{"ha":692,"x_min":0,"x_max":0,"o":"m 656 131 l 640 138 b 514 33 601 68 557 33 b 490 93 485 33 479 54 l 653 604 l 544 589 l 519 529 b 419 603 511 579 468 603 b 32 207 206 603 32 388 b 215 -12 32 97 81 -12 b 400 144 289 -12 354 44 b 483 -12 371 56 406 -12 b 656 131 533 -12 606 29 z m 508 493 l 426 236 b 229 11 372 100 314 11 b 129 133 153 11 129 61 b 301 544 129 250 200 468 b 419 586 335 569 361 586 b 508 493 476 586 510 551 z m 585 710 b 363 963 386 761 429 963 b 311 907 333 963 311 939 b 581 694 311 836 378 743 b 585 710 583 693 588 710 z "},"â":{"ha":692,"x_min":0,"x_max":0,"o":"m 656 131 l 640 138 b 514 33 601 68 557 33 b 490 93 485 33 479 54 l 653 604 l 544 589 l 519 529 b 419 603 511 579 468 603 b 32 207 206 603 32 388 b 215 -12 32 97 81 -12 b 400 144 289 -12 354 44 b 483 -12 371 56 406 -12 b 656 131 533 -12 606 29 z m 508 493 l 426 236 b 229 11 372 100 314 11 b 129 133 153 11 129 61 b 301 544 129 250 200 468 b 419 586 335 569 361 586 b 508 493 476 586 510 551 z m 650 725 b 579 992 619 797 588 911 b 563 996 579 994 565 999 b 306 726 499 931 413 818 b 319 719 303 725 317 717 b 517 899 386 776 468 849 b 582 717 532 828 558 757 z "},"ä":{"ha":692,"x_min":0,"x_max":0,"o":"m 656 131 l 640 138 b 514 33 601 68 557 33 b 490 93 485 33 479 54 l 653 604 l 544 589 l 519 529 b 419 603 511 579 468 603 b 32 207 206 603 32 388 b 215 -12 32 97 81 -12 b 400 144 289 -12 354 44 b 483 -12 371 56 406 -12 b 656 131 533 -12 606 29 z m 508 493 l 426 236 b 229 11 372 100 314 11 b 129 133 153 11 129 61 b 301 544 129 250 200 468 b 419 586 335 569 361 586 b 508 493 476 586 510 551 z m 692 829 b 647 876 692 857 672 876 b 575 799 608 876 575 839 b 619 751 575 771 593 751 b 692 829 657 751 692 789 z m 425 829 b 381 876 425 857 406 876 b 308 799 343 876 308 839 b 353 751 308 771 328 751 b 425 829 390 751 425 789 z "},"ã":{"ha":692,"x_min":0,"x_max":0,"o":"m 656 131 l 640 138 b 514 33 601 68 557 33 b 490 93 485 33 479 54 l 653 604 l 544 589 l 519 529 b 419 603 511 579 468 603 b 32 207 206 603 32 388 b 215 -12 32 97 81 -12 b 400 144 289 -12 354 44 b 483 -12 371 56 406 -12 b 656 131 533 -12 606 29 z m 508 493 l 426 236 b 229 11 372 100 314 11 b 129 133 153 11 129 61 b 301 544 129 250 200 468 b 419 586 335 569 361 586 b 508 493 476 586 510 551 z m 756 922 b 739 922 756 925 739 925 b 650 824 739 878 713 824 b 401 913 588 824 494 913 b 239 756 328 913 239 844 b 256 756 239 753 256 753 b 344 856 256 801 282 856 b 593 765 407 856 500 765 b 756 922 668 765 756 833 z "},"å":{"ha":692,"x_min":0,"x_max":0,"o":"m 656 131 l 640 138 b 514 33 601 68 557 33 b 490 93 485 33 479 54 l 653 604 l 544 589 l 519 529 b 419 603 511 579 468 603 b 32 207 206 603 32 388 b 215 -12 32 97 81 -12 b 400 144 289 -12 354 44 b 483 -12 371 56 406 -12 b 656 131 533 -12 606 29 z m 508 493 l 426 236 b 229 11 372 100 314 11 b 129 133 153 11 129 61 b 301 544 129 250 200 468 b 419 586 335 569 361 586 b 508 493 476 586 510 551 z m 607 872 b 522 957 607 922 571 957 b 388 821 451 957 388 894 b 472 736 388 771 424 736 b 607 872 543 736 607 800 z m 589 869 b 476 753 589 808 533 753 b 406 824 438 753 406 779 b 518 940 406 885 461 940 b 589 869 557 940 589 913 z "},"ç":{"ha":568,"x_min":0,"x_max":0,"o":"m 542 478 b 381 603 542 539 475 603 b 32 221 196 603 32 419 b 249 -12 32 83 125 -11 b 204 -97 231 -29 204 -62 b 275 -229 204 -160 275 -189 b 206 -287 275 -264 256 -287 b 154 -247 174 -287 154 -269 b 179 -204 154 -233 179 -228 b 150 -171 179 -183 167 -171 b 110 -217 128 -171 110 -194 b 207 -304 110 -264 144 -304 b 311 -199 260 -304 311 -261 b 254 -49 311 -125 254 -111 b 272 -11 254 -32 265 -17 b 490 125 357 -3 432 46 l 478 133 b 247 4 419 60 351 4 b 124 139 147 4 124 72 b 224 488 124 211 192 432 b 383 588 257 547 294 588 b 443 547 425 588 443 575 b 421 472 443 517 421 514 b 478 415 421 443 439 415 b 542 478 513 415 542 436 z "},"é":{"ha":574,"x_min":0,"x_max":0,"o":"m 542 490 b 388 603 542 539 504 603 b 32 221 201 603 32 419 b 251 -12 32 83 126 -12 b 474 103 344 -12 408 26 l 464 114 b 247 4 410 50 353 4 b 124 139 147 4 124 72 b 156 303 124 182 135 228 l 247 303 b 542 490 421 303 542 379 z m 453 521 b 231 319 453 433 400 319 l 161 319 b 383 588 208 490 254 588 b 453 521 431 588 453 564 z m 658 913 b 614 956 658 938 642 956 b 293 722 544 956 528 767 b 292 706 290 721 288 706 b 658 913 565 756 658 854 z "},"è":{"ha":574,"x_min":0,"x_max":0,"o":"m 542 490 b 388 603 542 539 504 603 b 32 221 201 603 32 419 b 251 -12 32 83 126 -12 b 474 103 344 -12 408 26 l 464 114 b 247 4 410 50 353 4 b 124 139 147 4 124 72 b 156 303 124 182 135 228 l 247 303 b 542 490 421 303 542 379 z m 453 521 b 231 319 453 433 400 319 l 161 319 b 383 588 208 490 254 588 b 453 521 431 588 453 564 z m 476 710 b 254 963 278 761 321 963 b 203 907 225 963 203 939 b 472 694 203 836 269 743 b 476 710 475 693 479 710 z "},"ê":{"ha":574,"x_min":0,"x_max":0,"o":"m 542 490 b 388 603 542 539 504 603 b 32 221 201 603 32 419 b 251 -12 32 83 126 -12 b 474 103 344 -12 408 26 l 464 114 b 247 4 410 50 353 4 b 124 139 147 4 124 72 b 156 303 124 182 135 228 l 247 303 b 542 490 421 303 542 379 z m 453 521 b 231 319 453 433 400 319 l 161 319 b 383 588 208 490 254 588 b 453 521 431 588 453 564 z m 583 725 b 513 992 553 797 521 911 b 496 996 513 994 499 999 b 239 726 432 931 346 818 b 253 719 236 725 250 717 b 450 899 319 776 401 849 b 515 717 465 828 492 757 z "},"ë":{"ha":574,"x_min":0,"x_max":0,"o":"m 542 490 b 388 603 542 539 504 603 b 32 221 201 603 32 419 b 251 -12 32 83 126 -12 b 474 103 344 -12 408 26 l 464 114 b 247 4 410 50 353 4 b 124 139 147 4 124 72 b 156 303 124 182 135 228 l 247 303 b 542 490 421 303 542 379 z m 453 521 b 231 319 453 433 400 319 l 161 319 b 383 588 208 490 254 588 b 453 521 431 588 453 564 z m 604 829 b 560 876 604 857 585 876 b 488 799 521 876 488 839 b 532 751 488 771 506 751 b 604 829 569 751 604 789 z m 338 829 b 293 876 338 857 318 876 b 221 799 256 876 221 839 b 265 751 221 771 240 751 b 338 829 303 751 338 789 z "},"í":{"ha":361,"x_min":0,"x_max":0,"o":"m 332 129 l 317 136 b 190 33 274 60 233 33 b 149 86 161 33 149 54 b 288 504 149 175 288 367 b 192 603 288 561 267 603 b 49 479 147 603 92 572 l 64 472 b 156 563 96 536 128 563 b 189 522 182 563 189 551 b 50 86 189 396 50 197 b 160 -12 50 29 86 -12 b 332 129 210 -12 282 29 z m 533 913 b 489 956 533 938 517 956 b 168 722 419 956 403 767 b 167 706 165 721 163 706 b 533 913 440 756 533 854 z "},"ì":{"ha":361,"x_min":0,"x_max":0,"o":"m 332 129 l 317 136 b 190 33 274 60 233 33 b 149 86 161 33 149 54 b 288 504 149 175 288 367 b 192 603 288 561 267 603 b 49 479 147 603 92 572 l 64 472 b 156 563 96 536 128 563 b 189 522 182 563 189 551 b 50 86 189 396 50 197 b 160 -12 50 29 86 -12 b 332 129 210 -12 282 29 z m 356 710 b 133 963 157 761 200 963 b 82 907 104 963 82 939 b 351 694 82 836 149 743 b 356 710 354 693 358 710 z "},"î":{"ha":361,"x_min":0,"x_max":0,"o":"m 332 129 l 317 136 b 190 33 274 60 233 33 b 149 86 161 33 149 54 b 288 504 149 175 288 367 b 192 603 288 561 267 603 b 49 479 147 603 92 572 l 64 472 b 156 563 96 536 128 563 b 189 522 182 563 189 551 b 50 86 189 396 50 197 b 160 -12 50 29 86 -12 b 332 129 210 -12 282 29 z m 454 725 b 383 992 424 797 392 911 b 367 996 383 994 369 999 b 110 726 303 931 217 818 b 124 719 107 725 121 717 b 321 899 190 776 272 849 b 386 717 336 828 363 757 z "},"ï":{"ha":361,"x_min":0,"x_max":0,"o":"m 332 129 l 317 136 b 190 33 274 60 233 33 b 149 86 161 33 149 54 b 288 504 149 175 288 367 b 192 603 288 561 267 603 b 49 479 147 603 92 572 l 64 472 b 156 563 96 536 128 563 b 189 522 182 563 189 551 b 50 86 189 396 50 197 b 160 -12 50 29 86 -12 b 332 129 210 -12 282 29 z m 471 829 b 426 876 471 857 451 876 b 354 799 388 876 354 839 b 399 751 354 771 372 751 b 471 829 436 751 471 789 z m 204 829 b 160 876 204 857 185 876 b 88 799 122 876 88 839 b 132 751 88 771 107 751 b 204 829 169 751 204 789 z "},"ñ":{"ha":725,"x_min":0,"x_max":0,"o":"m 703 129 l 686 136 b 561 33 644 60 604 33 b 519 86 532 33 519 54 b 644 493 519 175 644 376 b 550 603 644 574 590 603 b 254 374 468 603 336 519 b 203 603 314 533 288 603 b 49 479 158 603 92 574 l 65 472 b 157 563 96 536 129 563 b 186 496 183 563 199 536 l 28 0 l 138 0 l 239 322 b 475 536 331 478 419 536 b 536 476 508 536 536 511 b 415 86 536 350 415 197 b 525 -12 415 29 451 -12 b 703 129 575 -12 651 29 z m 726 922 b 710 922 726 925 710 925 b 621 824 710 878 683 824 b 372 913 558 824 465 913 b 210 756 299 913 210 844 b 226 756 210 753 226 753 b 315 856 226 801 253 856 b 564 765 378 856 471 765 b 726 922 639 765 726 833 z "},"ó":{"ha":664,"x_min":0,"x_max":0,"o":"m 604 371 b 386 603 604 508 511 603 b 32 221 200 603 32 419 b 250 -12 32 83 125 -12 b 604 371 436 -12 604 171 z m 514 451 b 414 103 514 379 444 158 b 247 4 379 43 335 4 b 122 139 146 4 122 72 b 222 488 122 211 192 432 b 389 588 256 547 300 588 b 514 451 490 588 514 519 z m 663 913 b 618 956 663 938 646 956 b 297 722 549 956 532 767 b 296 706 294 721 292 706 b 663 913 569 756 663 854 z "},"ò":{"ha":664,"x_min":0,"x_max":0,"o":"m 604 371 b 386 603 604 508 511 603 b 32 221 200 603 32 419 b 250 -12 32 83 125 -12 b 604 371 436 -12 604 171 z m 514 451 b 414 103 514 379 444 158 b 247 4 379 43 335 4 b 122 139 146 4 122 72 b 222 488 122 211 192 432 b 389 588 256 547 300 588 b 514 451 490 588 514 519 z m 501 710 b 279 963 303 761 346 963 b 228 907 250 963 228 939 b 497 694 228 836 294 743 b 501 710 500 693 504 710 z "},"ô":{"ha":664,"x_min":0,"x_max":0,"o":"m 604 371 b 386 603 604 508 511 603 b 32 221 200 603 32 419 b 250 -12 32 83 125 -12 b 604 371 436 -12 604 171 z m 514 451 b 414 103 514 379 444 158 b 247 4 379 43 335 4 b 122 139 146 4 122 72 b 222 488 122 211 192 432 b 389 588 256 547 300 588 b 514 451 490 588 514 519 z m 600 725 b 529 992 569 797 538 911 b 513 996 529 994 515 999 b 256 726 449 931 363 818 b 269 719 253 725 267 717 b 467 899 336 776 418 849 b 532 717 482 828 508 757 z "},"ö":{"ha":664,"x_min":0,"x_max":0,"o":"m 604 371 b 386 603 604 508 511 603 b 32 221 200 603 32 419 b 250 -12 32 83 125 -12 b 604 371 436 -12 604 171 z m 514 451 b 414 103 514 379 444 158 b 247 4 379 43 335 4 b 122 139 146 4 122 72 b 222 488 122 211 192 432 b 389 588 256 547 300 588 b 514 451 490 588 514 519 z m 608 829 b 564 876 608 857 589 876 b 492 799 525 876 492 839 b 536 751 492 771 510 751 b 608 829 574 751 608 789 z m 342 829 b 297 876 342 857 322 876 b 225 799 260 876 225 839 b 269 751 225 771 244 751 b 342 829 307 751 342 789 z "},"õ":{"ha":664,"x_min":0,"x_max":0,"o":"m 604 371 b 386 603 604 508 511 603 b 32 221 200 603 32 419 b 250 -12 32 83 125 -12 b 604 371 436 -12 604 171 z m 514 451 b 414 103 514 379 444 158 b 247 4 379 43 335 4 b 122 139 146 4 122 72 b 222 488 122 211 192 432 b 389 588 256 547 300 588 b 514 451 490 588 514 519 z m 703 922 b 686 922 703 925 686 925 b 597 824 686 878 660 824 b 349 913 535 824 442 913 b 186 756 275 913 186 844 b 203 756 186 753 203 753 b 292 856 203 801 229 856 b 540 765 354 856 447 765 b 703 922 615 765 703 833 z "},"ú":{"ha":711,"x_min":0,"x_max":0,"o":"m 681 129 l 665 136 b 539 32 622 60 582 32 b 513 76 514 32 504 51 l 676 599 l 564 590 l 463 268 b 226 49 369 107 288 49 b 160 113 192 49 160 78 b 286 504 160 239 286 393 b 192 603 286 556 264 603 b 49 479 149 603 92 574 l 64 472 b 157 563 96 536 128 563 b 189 522 179 563 189 553 b 57 117 189 432 57 233 b 171 -12 57 36 104 -12 b 446 211 253 -12 364 65 b 499 -12 388 56 415 -12 b 681 129 549 -12 631 29 z m 633 913 b 589 956 633 938 617 956 b 268 722 519 956 503 767 b 267 706 265 721 263 706 b 633 913 540 756 633 854 z "},"ù":{"ha":711,"x_min":0,"x_max":0,"o":"m 681 129 l 665 136 b 539 32 622 60 582 32 b 513 76 514 32 504 51 l 676 599 l 564 590 l 463 268 b 226 49 369 107 288 49 b 160 113 192 49 160 78 b 286 504 160 239 286 393 b 192 603 286 556 264 603 b 49 479 149 603 92 574 l 64 472 b 157 563 96 536 128 563 b 189 522 179 563 189 553 b 57 117 189 432 57 233 b 171 -12 57 36 104 -12 b 446 211 253 -12 364 65 b 499 -12 388 56 415 -12 b 681 129 549 -12 631 29 z m 535 710 b 313 963 336 761 379 963 b 261 907 283 963 261 939 b 531 694 261 836 328 743 b 535 710 533 693 538 710 z "},"û":{"ha":711,"x_min":0,"x_max":0,"o":"m 681 129 l 665 136 b 539 32 622 60 582 32 b 513 76 514 32 504 51 l 676 599 l 564 590 l 463 268 b 226 49 369 107 288 49 b 160 113 192 49 160 78 b 286 504 160 239 286 393 b 192 603 286 556 264 603 b 49 479 149 603 92 574 l 64 472 b 157 563 96 536 128 563 b 189 522 179 563 189 553 b 57 117 189 432 57 233 b 171 -12 57 36 104 -12 b 446 211 253 -12 364 65 b 499 -12 388 56 415 -12 b 681 129 549 -12 631 29 z m 625 725 b 554 992 594 797 563 911 b 538 996 554 994 540 999 b 281 726 474 931 388 818 b 294 719 278 725 292 717 b 492 899 361 776 443 849 b 557 717 507 828 533 757 z "},"ü":{"ha":711,"x_min":0,"x_max":0,"o":"m 681 129 l 665 136 b 539 32 622 60 582 32 b 513 76 514 32 504 51 l 676 599 l 564 590 l 463 268 b 226 49 369 107 288 49 b 160 113 192 49 160 78 b 286 504 160 239 286 393 b 192 603 286 556 264 603 b 49 479 149 603 92 574 l 64 472 b 157 563 96 536 128 563 b 189 522 179 563 189 553 b 57 117 189 432 57 233 b 171 -12 57 36 104 -12 b 446 211 253 -12 364 65 b 499 -12 388 56 415 -12 b 681 129 549 -12 631 29 z m 654 829 b 610 876 654 857 635 876 b 538 799 571 876 538 839 b 582 751 538 771 556 751 b 654 829 619 751 654 789 z m 388 829 b 343 876 388 857 368 876 b 271 799 306 876 271 839 b 315 751 271 771 290 751 b 388 829 353 751 388 789 z "},"°":{"ha":393,"x_min":0,"x_max":0,"o":"m 451 911 b 367 996 451 961 415 996 b 232 860 296 996 232 933 b 317 775 232 810 268 775 b 451 911 388 775 451 839 z m 433 908 b 321 792 433 847 378 792 b 250 863 282 792 250 818 b 363 979 250 924 306 979 b 433 908 401 979 433 951 z "},"®":{"ha":1160,"x_min":0,"x_max":0,"o":"m 1122 493 b 615 1008 1122 778 894 1008 b 107 493 336 1008 107 778 b 615 -24 107 207 336 -24 b 1122 493 894 -24 1122 207 z m 1104 493 b 615 -7 1104 217 885 -7 b 125 493 344 -7 125 217 b 615 990 125 768 344 990 b 1104 493 885 990 1104 768 z m 946 219 b 939 231 946 221 940 231 b 889 206 928 218 910 206 b 842 275 858 206 842 233 l 842 351 b 632 508 842 447 778 508 b 814 651 736 508 814 574 b 615 796 814 733 739 796 l 361 796 b 361 782 360 796 360 782 l 433 782 b 439 779 438 782 439 781 l 439 221 b 433 218 439 219 438 218 l 361 218 b 361 206 360 218 360 206 l 631 206 b 631 218 633 206 633 218 l 538 218 b 533 221 533 218 533 219 l 533 501 l 613 501 b 744 399 688 501 744 471 l 744 353 b 867 190 744 233 800 190 b 946 219 904 190 929 203 z m 721 647 b 613 515 721 542 694 515 l 533 515 l 533 779 b 538 782 533 781 533 782 l 593 782 b 721 647 674 782 721 751 z "},"©":{"ha":1160,"x_min":0,"x_max":0,"o":"m 1122 493 b 615 1008 1122 778 894 1008 b 107 493 336 1008 107 778 b 615 -24 107 207 336 -24 b 1122 493 894 -24 1122 207 z m 1104 493 b 615 -7 1104 217 885 -7 b 125 493 344 -7 125 217 b 615 990 125 768 344 990 b 1104 493 885 990 1104 768 z m 818 193 l 818 386 b 804 386 818 388 804 388 b 626 204 804 276 728 204 b 517 235 588 204 544 211 b 447 500 471 275 447 357 b 517 765 447 642 471 726 b 622 796 544 789 583 796 b 789 638 704 796 789 721 b 801 638 789 636 801 636 l 801 807 b 789 807 801 808 790 810 b 747 788 788 799 771 788 b 622 810 710 788 663 810 b 350 500 464 810 350 665 b 626 190 350 335 468 190 b 767 217 672 190 729 217 b 804 193 792 217 803 203 b 818 193 806 192 818 192 z "},"™":{"ha":597,"x_min":0,"x_max":0,"o":"m 731 750 b 731 764 732 750 732 764 l 700 764 b 697 765 697 764 697 765 l 697 969 b 700 971 697 971 697 971 l 731 971 b 731 985 732 971 732 985 l 653 985 b 647 979 651 985 649 983 l 582 807 l 521 979 b 514 985 519 983 517 985 l 435 985 b 435 971 433 985 433 971 l 465 971 b 468 969 467 971 468 971 l 468 765 b 465 764 468 765 467 764 l 435 764 b 435 750 433 764 433 750 l 515 750 b 515 764 517 750 517 764 l 485 764 b 482 765 483 764 482 765 l 482 957 l 565 746 b 575 746 565 744 575 744 l 654 957 l 654 765 b 651 764 654 765 653 764 l 622 764 b 622 750 621 764 621 750 z m 396 911 l 396 985 b 394 985 396 985 396 985 l 185 985 b 183 985 183 985 183 985 l 183 911 b 197 911 183 910 197 910 b 257 971 197 949 206 971 l 265 971 b 267 969 267 971 267 971 l 267 765 b 265 764 267 765 267 764 l 235 764 b 235 750 233 764 233 750 l 343 750 b 343 764 344 750 344 764 l 313 764 b 310 765 310 764 310 765 l 310 969 b 313 971 310 971 310 971 l 321 971 b 381 911 371 971 381 949 b 396 911 381 910 396 910 z "},"Ω":{"ha":689,"x_min":0,"x_max":0,"o":"m 972 924 b 846 1032 972 982 947 1032 b 689 960 788 1032 746 1010 b 538 1032 660 1004 615 1032 b 224 682 403 1032 290 889 b 199 596 215 656 208 631 l 56 596 b 50 581 53 596 47 581 l 193 581 b 7 -133 135 368 67 57 b -151 -422 -62 -354 -83 -422 b -190 -378 -182 -422 -190 -406 b -165 -300 -190 -357 -165 -331 b -221 -254 -165 -275 -181 -254 b -286 -331 -256 -254 -286 -286 b -165 -439 -286 -397 -246 -439 b -54 -390 -117 -439 -93 -421 b 83 -439 -24 -424 19 -439 b 400 -85 218 -439 332 -290 b 603 581 449 68 543 360 l 764 581 b 769 596 768 581 772 596 l 607 596 b 638 706 618 638 628 671 b 833 1015 718 961 781 1015 b 876 972 867 1015 876 1003 b 851 893 876 951 851 922 b 907 846 851 867 868 846 b 972 924 942 846 972 878 z m 676 947 b 522 682 617 892 560 793 b 497 596 514 656 507 631 l 308 596 b 339 706 319 638 328 671 b 551 1015 419 961 472 1015 b 676 947 607 1015 651 990 z m 493 581 b 289 -122 433 368 349 67 b 71 -422 208 -378 150 -422 b -42 -378 25 -422 -12 -408 b 122 -79 26 -317 78 -214 b 303 581 172 74 243 360 z "},"√":{"ha":986,"x_min":0,"x_max":0,"o":"m 1064 1026 b 1051 1031 1065 1031 1056 1035 b 944 997 1039 1017 1019 997 b 847 1032 915 1022 888 1032 b 690 961 789 1032 744 1008 b 538 1032 661 1006 614 1032 b 224 682 403 1032 292 889 b 199 596 215 656 208 631 l 56 596 b 50 581 51 596 47 581 l 193 581 b 7 -133 135 368 68 57 b -153 -422 -62 -354 -83 -422 b -190 -378 -182 -422 -190 -406 b -165 -300 -190 -357 -165 -331 b -221 -254 -165 -275 -182 -254 b -286 -331 -256 -254 -286 -286 b -165 -439 -286 -397 -246 -439 b -53 -390 -117 -439 -92 -421 b 85 -439 -22 -424 19 -439 b 400 -85 219 -439 333 -290 b 603 581 450 68 543 360 l 814 581 l 681 157 b 761 -12 649 56 675 -12 b 933 129 811 -12 883 29 l 918 136 b 792 33 875 60 826 33 b 764 76 765 33 756 51 z m 939 981 l 818 596 l 607 596 b 639 706 618 638 628 671 b 844 1015 721 968 779 1015 b 939 981 888 1015 906 1008 z m 676 947 b 524 682 615 889 560 794 b 497 596 514 656 507 631 l 308 596 b 339 706 319 638 329 671 b 551 1015 419 961 472 1015 b 676 947 607 1015 653 992 z m 493 581 b 290 -122 433 368 350 67 b 71 -422 210 -378 150 -422 b -40 -378 25 -422 -11 -410 b 122 -79 26 -318 79 -214 b 304 581 174 74 243 360 z "},"≈":{"ha":989,"x_min":0,"x_max":0,"o":"m 996 874 b 846 1032 996 967 944 1032 b 690 963 789 1032 742 1007 b 542 1032 660 1010 618 1032 b 224 682 407 1032 290 889 b 197 596 214 656 207 631 l 54 596 b 49 581 51 596 46 581 l 193 581 b 7 -133 133 368 67 57 b -153 -422 -64 -354 -85 -422 b -192 -378 -182 -422 -192 -406 b -167 -300 -192 -357 -167 -331 b -222 -254 -167 -275 -182 -254 b -287 -331 -257 -254 -287 -286 b -167 -439 -287 -397 -247 -439 b -54 -390 -117 -439 -93 -421 b 83 -439 -24 -424 19 -439 b 399 -85 218 -439 332 -290 b 601 581 449 68 542 360 l 808 581 b 650 86 792 483 650 179 b 750 -12 650 29 676 -12 b 932 129 800 -12 882 29 l 917 136 b 790 33 874 60 825 33 b 749 86 761 33 749 54 b 938 615 749 151 885 458 b 925 619 939 619 929 624 b 807 596 906 600 906 596 l 606 596 b 638 706 618 638 626 671 b 839 1015 718 961 779 1015 b 914 946 897 1015 914 1001 b 869 846 914 906 869 890 b 928 793 869 811 889 793 b 996 874 963 793 996 829 z m 678 950 b 522 682 614 888 558 794 b 496 596 514 656 506 631 l 307 596 b 339 706 318 638 328 671 b 554 1015 419 961 475 1015 b 678 950 611 1015 650 994 z m 492 581 b 289 -122 433 368 349 67 b 71 -422 208 -378 149 -422 b -42 -378 24 -422 -12 -410 b 122 -79 25 -318 78 -214 b 303 581 172 74 243 360 z "},"À":{"ha":893,"x_min":0,"x_max":0,"o":"m 826 17 l 697 17 b 689 22 692 17 689 18 l 689 1004 b 669 1004 689 1008 674 1010 l -33 75 b -99 17 -71 25 -83 17 l -199 17 b -203 0 -201 17 -206 0 l 78 0 b 82 17 81 0 85 17 l -39 17 b -11 75 -51 17 -51 24 l 186 336 l 544 336 l 544 22 b 536 17 544 18 542 17 l 429 17 b 425 0 425 17 421 0 l 822 0 b 826 17 825 0 829 17 z m 544 353 l 200 353 l 544 808 z m 760 1064 b 538 1317 561 1115 604 1317 b 486 1261 508 1317 486 1293 b 756 1049 486 1190 553 1097 b 760 1064 758 1047 763 1064 z "},"Ã":{"ha":893,"x_min":0,"x_max":0,"o":"m 826 17 l 697 17 b 689 22 692 17 689 18 l 689 1004 b 669 1004 689 1008 674 1010 l -33 75 b -99 17 -71 25 -83 17 l -199 17 b -203 0 -201 17 -206 0 l 78 0 b 82 17 81 0 85 17 l -39 17 b -11 75 -51 17 -51 24 l 186 336 l 544 336 l 544 22 b 536 17 544 18 542 17 l 429 17 b 425 0 425 17 421 0 l 822 0 b 826 17 825 0 829 17 z m 544 353 l 200 353 l 544 808 z m 1010 1276 b 993 1276 1010 1279 993 1279 b 904 1178 993 1232 967 1178 b 656 1267 842 1178 749 1267 b 493 1110 582 1267 493 1199 b 510 1110 493 1107 510 1107 b 599 1210 510 1156 536 1210 b 847 1119 661 1210 754 1119 b 1010 1276 922 1119 1010 1188 z "},"Õ":{"ha":1008,"x_min":0,"x_max":0,"o":"m 982 639 b 646 1008 982 869 846 1008 b 68 347 350 1008 68 681 b 406 -24 68 117 206 -24 b 982 639 701 -24 982 306 z m 869 788 b 665 135 869 624 726 233 b 406 -7 599 28 507 -7 b 181 197 268 -7 181 57 b 386 850 181 361 325 753 b 646 992 453 957 544 992 b 869 788 783 992 869 929 z m 976 1276 b 960 1276 976 1279 960 1279 b 871 1178 960 1232 933 1178 b 622 1267 808 1178 715 1267 b 460 1110 549 1267 460 1199 b 476 1110 460 1107 476 1107 b 565 1210 476 1156 503 1210 b 814 1119 628 1210 721 1119 b 976 1276 889 1119 976 1188 z "},"ÿ":{"ha":617,"x_min":0,"x_max":0,"o":"m 665 564 b 624 604 665 590 654 604 b 339 157 536 604 453 436 l 301 364 b 174 604 264 568 229 604 b 19 469 114 604 71 564 l 33 458 b 104 524 61 508 81 524 b 211 297 136 524 174 504 l 265 -21 b -53 -422 164 -260 94 -422 b -92 -382 -82 -422 -92 -410 b -67 -303 -92 -361 -67 -333 b -124 -256 -67 -276 -83 -256 b -189 -328 -158 -256 -189 -283 b -56 -439 -189 -396 -136 -439 b 308 36 104 -439 181 -276 b 615 513 463 411 494 475 b 665 564 642 519 665 535 z m 604 829 b 560 876 604 857 585 876 b 488 799 521 876 488 839 b 532 751 488 771 506 751 b 604 829 569 751 604 789 z m 338 829 b 293 876 338 857 318 876 b 221 799 256 876 221 839 b 265 751 221 771 240 751 b 338 829 303 751 338 789 z "},"Ÿ":{"ha":878,"x_min":0,"x_max":0,"o":"m 1078 985 l 797 985 b 792 968 794 985 789 968 l 918 968 b 883 910 928 968 926 964 l 542 475 l 449 963 b 456 968 449 965 450 968 l 606 968 b 611 985 610 968 614 985 l 161 985 b 157 968 158 985 154 968 l 285 968 b 294 963 290 968 294 965 l 393 457 l 256 22 b 244 17 254 18 250 17 l 119 17 b 115 0 117 17 113 0 l 535 0 b 539 17 538 0 542 17 l 414 17 b 407 22 408 17 406 18 l 544 453 l 904 910 b 964 968 946 963 956 968 l 1071 968 b 1078 985 1075 968 1081 985 z m 933 1183 b 889 1231 933 1211 914 1231 b 817 1153 850 1231 817 1193 b 861 1106 817 1125 835 1106 b 933 1183 899 1106 933 1143 z m 667 1183 b 622 1231 667 1211 647 1231 b 550 1153 585 1231 550 1193 b 594 1106 550 1125 569 1106 b 667 1183 632 1106 667 1143 z "},"Â":{"ha":893,"x_min":0,"x_max":0,"o":"m 826 17 l 697 17 b 689 22 692 17 689 18 l 689 1004 b 669 1004 689 1008 674 1010 l -33 75 b -99 17 -71 25 -83 17 l -199 17 b -203 0 -201 17 -206 0 l 78 0 b 82 17 81 0 85 17 l -39 17 b -11 75 -51 17 -51 24 l 186 336 l 544 336 l 544 22 b 536 17 544 18 542 17 l 429 17 b 425 0 425 17 421 0 l 822 0 b 826 17 825 0 829 17 z m 544 353 l 200 353 l 544 808 z m 879 1079 b 808 1346 849 1151 817 1265 b 792 1350 808 1349 794 1353 b 535 1081 728 1285 642 1172 b 549 1074 532 1079 546 1071 b 746 1253 615 1131 697 1203 b 811 1071 761 1182 788 1111 z "},"Ê":{"ha":893,"x_min":0,"x_max":0,"o":"m 938 981 b 935 985 938 982 938 985 l 233 985 b 228 968 231 985 225 968 l 353 968 b 360 963 358 968 361 967 l 63 22 b 51 17 61 18 58 17 l -72 17 b -78 0 -76 17 -81 0 l 699 0 b 704 4 701 0 703 1 l 790 279 b 774 279 792 282 775 282 b 368 17 729 136 618 17 l 222 17 b 214 22 215 17 214 18 l 369 511 l 433 511 b 546 343 547 511 576 438 b 563 343 544 340 563 340 l 664 665 b 646 665 664 668 647 668 b 439 528 617 569 553 528 l 375 528 l 511 963 b 522 968 513 967 517 968 l 685 968 b 850 733 850 968 893 867 b 867 733 850 729 867 729 z m 842 1079 b 771 1346 811 1151 779 1265 b 754 1350 771 1349 757 1353 b 497 1081 690 1285 604 1172 b 511 1074 494 1079 508 1071 b 708 1253 578 1131 660 1203 b 774 1071 724 1182 750 1111 z "},"Á":{"ha":893,"x_min":0,"x_max":0,"o":"m 826 17 l 697 17 b 689 22 692 17 689 18 l 689 1004 b 669 1004 689 1008 674 1010 l -33 75 b -99 17 -71 25 -83 17 l -199 17 b -203 0 -201 17 -206 0 l 78 0 b 82 17 81 0 85 17 l -39 17 b -11 75 -51 17 -51 24 l 186 336 l 544 336 l 544 22 b 536 17 544 18 542 17 l 429 17 b 425 0 425 17 421 0 l 822 0 b 826 17 825 0 829 17 z m 544 353 l 200 353 l 544 808 z m 1008 1267 b 964 1310 1008 1292 992 1310 b 643 1076 894 1310 878 1121 b 642 1060 640 1075 638 1060 b 1008 1267 915 1110 1008 1208 z "},"Ë":{"ha":893,"x_min":0,"x_max":0,"o":"m 938 981 b 935 985 938 982 938 985 l 233 985 b 228 968 231 985 225 968 l 353 968 b 360 963 358 968 361 967 l 63 22 b 51 17 61 18 58 17 l -72 17 b -78 0 -76 17 -81 0 l 699 0 b 704 4 701 0 703 1 l 790 279 b 774 279 792 282 775 282 b 368 17 729 136 618 17 l 222 17 b 214 22 215 17 214 18 l 369 511 l 433 511 b 546 343 547 511 576 438 b 563 343 544 340 563 340 l 664 665 b 646 665 664 668 647 668 b 439 528 617 569 553 528 l 375 528 l 511 963 b 522 968 513 967 517 968 l 685 968 b 850 733 850 968 893 867 b 867 733 850 729 867 729 z m 886 1183 b 842 1231 886 1211 867 1231 b 769 1153 803 1231 769 1193 b 814 1106 769 1125 788 1106 b 886 1183 851 1106 886 1143 z m 619 1183 b 575 1231 619 1211 600 1231 b 503 1153 538 1231 503 1193 b 547 1106 503 1125 522 1106 b 619 1183 585 1106 619 1143 z "},"È":{"ha":893,"x_min":0,"x_max":0,"o":"m 938 981 b 935 985 938 982 938 985 l 233 985 b 228 968 231 985 225 968 l 353 968 b 360 963 358 968 361 967 l 63 22 b 51 17 61 18 58 17 l -72 17 b -78 0 -76 17 -81 0 l 699 0 b 704 4 701 0 703 1 l 790 279 b 774 279 792 282 775 282 b 368 17 729 136 618 17 l 222 17 b 214 22 215 17 214 18 l 369 511 l 433 511 b 546 343 547 511 576 438 b 563 343 544 340 563 340 l 664 665 b 646 665 664 668 647 668 b 439 528 617 569 553 528 l 375 528 l 511 963 b 522 968 513 967 517 968 l 685 968 b 850 733 850 968 893 867 b 867 733 850 729 867 729 z m 793 1064 b 571 1317 594 1115 638 1317 b 519 1261 542 1317 519 1293 b 789 1049 519 1190 586 1097 b 793 1064 792 1047 796 1064 z "},"Í":{"ha":535,"x_min":0,"x_max":0,"o":"m 653 985 l 233 985 b 229 968 231 985 225 968 l 353 968 b 361 963 360 968 361 967 l 64 22 b 53 17 63 18 58 17 l -72 17 b -78 0 -75 17 -81 0 l 342 0 b 347 17 346 0 350 17 l 222 17 b 215 22 217 17 214 18 l 513 963 b 524 968 514 967 517 968 l 647 968 b 653 985 651 968 656 985 z m 733 1267 b 689 1310 733 1292 717 1310 b 368 1076 619 1310 603 1121 b 367 1060 365 1075 363 1060 b 733 1267 640 1110 733 1208 z "},"Î":{"ha":535,"x_min":0,"x_max":0,"o":"m 653 985 l 233 985 b 229 968 231 985 225 968 l 353 968 b 361 963 360 968 361 967 l 64 22 b 53 17 63 18 58 17 l -72 17 b -78 0 -75 17 -81 0 l 342 0 b 347 17 346 0 350 17 l 222 17 b 215 22 217 17 214 18 l 513 963 b 524 968 514 967 517 968 l 647 968 b 653 985 651 968 656 985 z m 667 1079 b 596 1346 636 1151 604 1265 b 579 1350 596 1349 582 1353 b 322 1081 515 1285 429 1172 b 336 1074 319 1079 333 1071 b 533 1253 403 1131 485 1203 b 599 1071 549 1182 575 1111 z "},"Ï":{"ha":535,"x_min":0,"x_max":0,"o":"m 653 985 l 233 985 b 229 968 231 985 225 968 l 353 968 b 361 963 360 968 361 967 l 64 22 b 53 17 63 18 58 17 l -72 17 b -78 0 -75 17 -81 0 l 342 0 b 347 17 346 0 350 17 l 222 17 b 215 22 217 17 214 18 l 513 963 b 524 968 514 967 517 968 l 647 968 b 653 985 651 968 656 985 z m 701 1183 b 657 1231 701 1211 682 1231 b 585 1153 618 1231 585 1193 b 629 1106 585 1125 603 1106 b 701 1183 667 1106 701 1143 z m 435 1183 b 390 1231 435 1211 415 1231 b 318 1153 353 1231 318 1193 b 363 1106 318 1125 338 1106 b 435 1183 400 1106 435 1143 z "},"Ì":{"ha":535,"x_min":0,"x_max":0,"o":"m 653 985 l 233 985 b 229 968 231 985 225 968 l 353 968 b 361 963 360 968 361 967 l 64 22 b 53 17 63 18 58 17 l -72 17 b -78 0 -75 17 -81 0 l 342 0 b 347 17 346 0 350 17 l 222 17 b 215 22 217 17 214 18 l 513 963 b 524 968 514 967 517 968 l 647 968 b 653 985 651 968 656 985 z m 614 1064 b 392 1317 415 1115 458 1317 b 340 1261 363 1317 340 1293 b 610 1049 340 1190 407 1097 b 614 1064 613 1047 617 1064 z "},"Ó":{"ha":1008,"x_min":0,"x_max":0,"o":"m 982 639 b 646 1008 982 869 846 1008 b 68 347 350 1008 68 681 b 406 -24 68 117 206 -24 b 982 639 701 -24 982 306 z m 869 788 b 665 135 869 624 726 233 b 406 -7 599 28 507 -7 b 181 197 268 -7 181 57 b 386 850 181 361 325 753 b 646 992 453 957 544 992 b 869 788 783 992 869 929 z m 938 1267 b 893 1310 938 1292 921 1310 b 572 1076 824 1310 807 1121 b 571 1060 569 1075 567 1060 b 938 1267 844 1110 938 1208 z "},"Ô":{"ha":1008,"x_min":0,"x_max":0,"o":"m 982 639 b 646 1008 982 869 846 1008 b 68 347 350 1008 68 681 b 406 -24 68 117 206 -24 b 982 639 701 -24 982 306 z m 869 788 b 665 135 869 624 726 233 b 406 -7 599 28 507 -7 b 181 197 268 -7 181 57 b 386 850 181 361 325 753 b 646 992 453 957 544 992 b 869 788 783 992 869 929 z m 871 1079 b 800 1346 840 1151 808 1265 b 783 1350 800 1349 786 1353 b 526 1081 719 1285 633 1172 b 540 1074 524 1079 538 1071 b 738 1253 607 1131 689 1203 b 803 1071 753 1182 779 1111 z "},"":{"ha":1343,"x_min":0,"x_max":0,"o":"m 1204 0 l 1204 1042 l 139 1042 l 139 0 z m 1139 722 b 1138 721 1139 721 1138 721 b 1119 722 1131 721 1128 722 b 1100 721 1111 722 1108 721 b 1099 724 1099 721 1099 724 b 1099 725 1099 725 1099 725 b 1108 732 1107 726 1108 728 b 1107 738 1108 735 1108 736 l 1103 758 l 1068 758 l 1074 738 b 1086 725 1074 731 1074 728 b 1086 722 1086 725 1086 724 b 1086 721 1086 721 1086 721 b 1069 722 1079 721 1078 722 b 1049 721 1061 722 1057 721 b 1047 724 1047 721 1047 724 b 1047 725 1047 725 1047 725 b 1058 732 1057 726 1058 728 b 1057 738 1058 735 1058 736 l 1047 783 b 1032 796 1044 790 1044 794 b 1032 799 1032 796 1032 797 b 1032 800 1032 800 1032 800 b 1050 799 1039 800 1043 799 b 1069 800 1058 799 1061 800 b 1071 797 1071 800 1071 799 b 1071 796 1071 796 1071 796 b 1061 789 1063 794 1061 792 b 1061 783 1061 786 1061 785 l 1067 764 l 1101 764 l 1097 783 b 1085 796 1094 790 1094 794 b 1083 799 1083 796 1083 797 b 1083 800 1083 800 1083 800 b 1101 799 1090 800 1093 799 b 1121 800 1108 799 1114 800 b 1124 797 1122 800 1124 799 b 1122 796 1124 796 1124 796 b 1111 789 1114 794 1111 792 b 1113 783 1111 786 1111 785 l 1124 738 b 1136 725 1125 731 1125 728 b 1139 722 1138 725 1139 724 z m 776 953 b 774 953 776 953 775 953 l 774 953 b 758 965 771 961 765 965 b 754 961 756 965 754 964 l 754 931 b 761 922 754 925 756 924 b 763 921 763 922 763 922 b 761 919 763 919 763 919 b 750 919 757 919 756 919 b 738 919 744 919 742 919 b 736 921 736 919 736 919 b 738 922 736 922 736 922 b 744 931 744 924 744 925 l 744 961 b 740 965 744 964 744 965 b 728 953 732 965 731 963 b 726 953 728 953 728 953 b 725 953 725 953 725 953 b 728 969 726 960 728 964 b 750 968 732 968 733 968 b 771 969 767 968 768 968 b 776 953 774 964 774 960 z m 964 750 b 933 719 964 728 946 719 b 883 772 908 719 883 743 b 914 803 883 794 901 803 b 964 750 939 803 964 778 z m 699 919 b 686 919 693 919 690 919 b 674 919 679 919 678 919 b 674 921 674 919 674 919 b 674 922 674 922 674 922 b 681 931 681 924 681 925 l 681 943 l 657 943 l 657 931 b 664 922 657 925 657 924 b 664 921 664 922 664 922 b 664 919 664 919 664 919 b 651 919 658 919 657 919 b 640 919 646 919 644 919 b 639 921 639 919 639 919 b 640 922 639 922 639 922 b 647 931 646 924 647 925 l 647 957 b 640 965 647 963 646 965 b 639 967 639 965 639 965 b 640 968 639 968 639 968 b 651 968 644 968 646 968 b 664 968 657 968 658 968 b 664 967 664 968 664 968 b 664 965 664 965 664 965 b 657 957 657 965 657 963 l 657 946 l 681 946 l 681 957 b 674 965 681 963 681 965 b 674 967 674 965 674 965 b 674 968 674 968 674 968 b 686 968 678 968 679 968 b 699 968 690 968 693 968 b 699 967 699 968 699 968 b 699 965 699 965 699 965 b 690 957 690 965 690 963 l 690 931 b 699 922 690 925 690 924 b 699 921 699 922 699 922 b 699 919 699 919 699 919 z m 1146 525 l 1096 525 l 1096 564 l 1081 564 l 1081 474 l 1100 474 l 1100 428 l 988 428 l 988 474 l 1007 474 l 1007 564 l 992 564 l 992 525 l 942 525 l 942 611 l 1146 611 z m 815 744 b 782 719 815 731 803 719 b 760 738 769 719 760 728 b 772 751 760 744 765 751 b 782 744 778 751 782 749 b 776 738 782 740 779 738 b 769 740 772 738 771 740 b 765 736 767 740 765 739 b 782 724 765 728 772 724 b 799 743 792 724 799 728 b 790 764 799 753 796 760 b 775 757 786 760 782 757 b 764 765 769 757 764 761 b 775 774 764 771 769 774 b 786 774 778 774 783 774 b 789 782 788 775 789 776 b 775 799 789 792 785 799 b 765 790 769 799 765 794 b 769 782 765 786 769 788 b 764 778 769 781 768 778 b 757 786 760 778 757 782 b 775 803 757 794 764 803 b 803 782 792 803 803 790 b 797 769 803 776 800 772 b 815 744 807 764 815 754 z m 1147 860 l 196 860 l 196 865 l 1147 865 z m 610 921 b 608 919 610 919 608 919 b 586 919 604 919 592 919 b 569 919 581 919 575 919 b 564 935 568 925 565 929 b 565 936 564 935 564 936 l 565 936 b 582 924 569 928 575 924 l 586 924 b 592 928 589 924 592 924 l 592 944 l 586 944 b 578 936 582 944 578 943 b 576 935 578 936 578 935 b 575 936 575 935 575 936 b 575 944 575 940 575 940 b 575 953 575 949 575 950 b 576 954 575 954 575 954 b 578 953 578 954 578 954 b 586 946 578 947 582 946 l 592 946 l 592 960 b 586 965 592 964 589 965 l 582 965 b 569 954 578 965 572 963 l 569 953 b 567 954 568 953 567 954 b 569 968 569 960 569 964 b 586 968 575 968 581 968 b 608 968 593 968 604 968 b 610 967 608 968 610 968 b 608 965 610 965 608 965 b 601 957 601 965 601 963 l 601 931 b 608 922 601 925 601 924 b 610 921 608 922 610 922 z m 690 722 b 690 721 690 721 690 721 b 671 722 682 721 679 722 b 651 721 664 722 658 721 b 649 724 650 721 649 724 b 650 725 649 725 650 725 b 661 732 658 726 661 728 b 660 738 661 735 661 736 l 656 760 l 649 760 b 638 744 640 760 636 757 b 636 744 638 744 638 744 b 633 744 635 744 633 744 b 631 761 632 751 632 756 b 626 776 629 768 628 769 b 628 778 626 778 628 778 b 631 776 629 778 631 778 b 647 764 635 765 639 764 l 653 764 l 649 786 b 640 794 647 793 644 794 l 635 794 b 615 776 622 794 617 790 b 614 775 615 775 615 775 b 611 776 613 775 611 775 b 613 790 611 782 613 786 b 611 800 613 794 613 797 b 639 799 619 800 631 799 b 674 800 647 799 668 800 b 675 797 674 800 675 799 b 674 796 675 796 675 796 b 664 789 665 794 664 792 b 665 783 664 786 664 785 l 675 738 b 689 725 678 731 678 728 b 690 722 690 725 690 724 z m 1143 240 b 1142 238 1143 239 1142 238 b 1124 239 1135 238 1132 239 b 1103 238 1115 239 1111 238 b 1101 240 1101 238 1101 240 b 1101 243 1101 242 1101 243 b 1113 250 1111 244 1113 246 b 1111 256 1113 251 1111 253 l 1107 276 l 1100 276 b 1089 261 1092 276 1088 274 b 1088 261 1089 261 1089 261 b 1086 261 1086 261 1086 261 b 1082 278 1083 268 1083 274 b 1078 294 1081 285 1079 286 b 1081 294 1078 294 1078 294 b 1082 294 1082 294 1082 294 b 1099 282 1086 282 1090 282 l 1106 282 l 1100 303 b 1092 311 1099 310 1096 311 l 1086 311 b 1067 293 1074 311 1069 307 b 1065 292 1067 293 1067 292 b 1064 293 1064 292 1063 293 b 1064 308 1064 299 1064 303 b 1064 317 1064 311 1064 315 b 1090 317 1071 317 1082 317 b 1125 317 1099 317 1119 317 b 1128 314 1126 317 1128 315 l 1126 313 b 1115 306 1118 311 1115 310 b 1115 300 1115 304 1115 303 l 1128 256 b 1140 243 1129 247 1129 244 b 1143 240 1142 243 1143 240 z m 1147 661 l 196 661 l 196 667 l 1147 667 z m 894 564 l 875 564 l 824 501 l 824 474 l 844 474 l 844 428 l 732 428 l 732 474 l 751 474 l 751 500 l 700 564 l 683 564 l 683 611 l 769 611 l 769 564 l 756 564 l 776 532 l 797 564 l 782 564 l 782 611 l 894 611 z m 554 724 b 549 719 554 721 551 719 b 532 729 542 719 536 724 b 494 713 517 729 519 713 b 476 728 485 713 476 719 b 483 736 476 732 478 736 b 490 731 486 736 490 733 b 488 724 490 728 488 728 b 494 718 488 721 490 718 b 524 736 507 718 504 736 b 497 799 504 758 515 799 b 490 790 492 799 490 794 b 485 782 490 785 490 782 b 478 789 481 782 478 785 b 496 803 478 794 486 803 b 536 736 532 803 524 753 b 554 724 549 735 554 728 z m 1007 267 b 976 236 1007 244 989 236 b 928 289 953 236 928 261 b 957 319 928 311 944 319 b 1007 267 982 319 1007 294 z m 406 744 b 374 719 406 731 394 719 b 350 738 360 719 350 728 b 363 751 350 744 356 751 b 374 744 369 751 374 749 b 367 738 374 740 371 738 b 360 740 363 738 361 740 b 357 736 357 740 357 739 b 374 724 357 728 363 724 b 390 743 382 724 390 728 b 382 764 390 753 386 760 b 365 757 378 760 372 757 b 356 765 361 757 356 761 b 365 774 356 771 361 774 b 378 774 369 774 374 774 b 379 782 378 775 379 776 b 365 799 379 792 375 799 b 357 790 360 799 357 794 b 361 782 357 786 361 788 b 354 778 361 781 358 778 b 347 786 350 778 347 782 b 365 803 347 794 356 803 b 393 782 382 803 393 790 b 388 769 393 776 390 772 b 406 744 399 764 406 754 z m 861 313 b 849 306 851 311 849 310 b 850 300 849 304 850 303 l 857 269 b 860 258 858 265 860 263 b 831 236 860 249 853 236 b 794 272 806 236 799 257 l 788 300 b 772 313 786 308 785 311 b 771 315 771 313 771 315 b 771 317 771 317 771 317 b 786 317 778 317 778 317 b 803 317 793 317 797 317 l 803 315 b 803 313 803 314 803 313 b 792 306 794 311 792 310 b 793 300 792 304 793 303 l 799 274 b 826 243 803 257 811 243 b 844 257 839 243 844 249 b 842 271 844 261 843 265 l 835 300 b 821 313 833 308 833 311 b 819 315 819 313 819 315 b 819 317 819 317 819 317 b 839 317 828 317 832 317 b 860 317 847 317 851 317 b 861 314 861 317 861 315 z m 632 428 l 519 428 l 519 474 l 540 474 l 540 500 l 499 500 b 433 556 458 500 433 524 b 499 611 433 586 458 611 l 632 611 l 632 564 l 613 564 l 613 474 l 632 474 z m 1147 378 l 196 378 l 196 383 l 1147 383 z m 964 65 b 953 65 960 65 957 65 b 944 65 950 65 947 65 b 943 67 943 65 943 65 b 944 68 943 67 943 68 b 951 75 951 68 951 71 l 950 101 l 915 64 l 914 64 b 911 64 913 64 911 64 l 911 103 b 903 110 911 107 911 110 b 903 113 903 110 903 111 l 903 114 b 913 113 907 114 910 113 b 924 114 917 113 919 114 l 924 113 b 924 110 924 111 924 110 b 915 103 915 110 915 107 l 915 79 l 949 114 b 956 113 951 114 953 113 b 963 114 958 113 960 114 l 963 113 b 963 110 963 111 963 110 b 954 103 956 110 954 107 l 956 75 b 964 68 956 71 957 68 b 964 67 964 68 964 68 b 964 65 964 65 964 65 z m 282 722 b 281 721 282 721 282 721 b 263 722 274 721 269 722 b 242 721 254 722 249 721 b 240 724 240 721 240 724 b 240 725 240 725 240 725 b 251 732 249 726 251 728 b 251 738 251 735 251 736 l 246 757 b 239 753 243 757 240 757 l 222 721 b 197 719 211 721 203 719 b 194 721 196 719 194 719 b 196 724 194 722 194 724 b 215 736 204 725 210 728 l 226 758 b 200 782 214 761 200 771 b 228 800 200 796 211 800 b 247 799 236 800 240 799 b 265 800 254 799 257 800 b 265 797 265 800 265 799 b 265 796 265 796 265 796 b 254 789 257 794 254 792 b 256 783 254 786 254 785 l 265 738 b 281 725 268 731 268 728 b 282 722 281 725 282 724 z m 725 240 b 724 238 725 239 725 238 b 711 239 719 238 717 239 b 694 238 704 239 699 238 l 693 240 b 694 243 693 242 693 243 b 703 256 703 244 704 249 l 696 297 l 653 236 b 650 236 653 236 651 236 b 649 238 649 236 649 236 l 638 300 b 624 313 636 307 633 311 l 624 315 b 624 317 624 317 624 317 b 638 315 629 317 632 315 b 653 317 644 315 649 317 b 656 314 654 317 656 315 b 654 313 656 314 656 313 b 644 300 644 311 643 307 l 650 261 l 692 317 b 704 317 696 317 699 317 b 711 317 707 317 708 317 b 714 314 713 317 714 315 b 713 313 714 314 714 313 b 700 304 703 311 700 310 b 701 300 700 303 700 301 l 711 256 b 724 243 711 249 715 244 z m 878 64 b 854 65 872 65 861 65 b 838 64 849 65 843 65 b 832 79 836 71 835 75 b 833 81 832 81 832 81 l 835 81 b 851 68 838 72 844 68 l 854 68 b 860 74 857 68 860 69 l 860 89 l 854 89 b 846 81 850 89 847 89 b 844 81 846 81 846 81 l 844 81 b 844 89 844 85 844 86 b 844 99 844 93 844 96 l 844 100 b 846 99 846 100 846 99 b 854 92 847 92 850 92 l 860 92 l 860 104 b 854 110 860 110 857 110 l 851 110 b 838 100 846 110 840 108 b 836 99 838 99 838 99 b 836 100 836 99 836 99 b 839 114 836 106 838 108 b 856 113 844 114 849 113 b 878 114 861 113 872 114 l 878 113 b 878 110 878 111 878 110 b 869 103 869 110 869 107 l 869 75 b 878 68 869 71 869 68 l 878 67 b 878 64 878 65 878 64 z m 808 113 b 807 110 808 111 808 110 b 799 101 803 110 803 108 l 782 64 l 782 64 b 781 64 781 64 781 64 l 768 85 l 758 64 b 757 64 757 64 757 64 l 756 64 l 739 101 b 731 110 736 107 736 110 b 731 113 731 110 731 111 l 731 114 b 738 113 733 114 735 113 b 746 114 742 113 743 114 b 747 113 747 114 747 113 b 746 110 747 111 747 110 b 743 106 743 110 743 110 b 743 101 743 106 743 103 l 754 76 l 764 94 l 760 101 b 750 110 757 107 754 110 b 749 113 749 110 749 111 l 749 114 b 758 113 753 114 756 113 b 765 114 761 113 763 114 b 775 113 771 114 771 113 b 785 114 781 113 779 114 l 786 113 b 785 110 786 111 785 110 b 776 101 779 110 778 107 l 769 89 l 778 76 l 790 103 b 790 106 790 104 790 106 b 788 110 790 110 790 110 b 788 113 788 110 788 111 l 788 114 b 799 113 793 114 794 113 b 808 114 803 113 803 114 z m 1147 178 l 196 178 l 196 183 l 1147 183 z m 385 428 l 189 428 l 189 513 l 246 513 l 246 474 l 292 474 l 292 503 l 258 503 l 258 536 l 292 536 l 292 564 l 246 564 l 246 525 l 189 525 l 189 611 l 385 611 l 385 564 l 365 564 l 365 474 l 385 474 z m 574 238 b 550 239 568 239 557 239 b 529 239 544 239 536 239 b 481 286 506 239 481 257 b 515 318 481 307 499 318 b 536 317 521 318 528 317 b 557 317 543 317 551 317 b 557 314 557 317 557 317 l 557 313 b 547 306 549 311 547 310 b 547 300 547 304 547 303 l 558 256 b 572 243 560 247 560 244 b 574 240 574 243 574 240 b 574 238 574 239 574 238 z m 665 113 b 665 110 665 111 665 110 b 656 103 660 110 658 108 l 644 86 l 644 75 b 651 68 644 71 644 68 b 653 67 653 68 653 67 b 651 64 653 65 653 64 b 640 65 647 64 644 65 b 628 64 633 65 632 64 b 628 67 628 64 628 65 l 628 68 b 635 75 635 68 635 71 l 635 86 l 624 103 b 613 110 619 108 618 110 b 613 113 613 110 613 111 l 613 114 b 621 113 615 114 618 113 b 632 114 625 113 628 114 l 632 113 b 632 110 632 111 632 110 b 626 106 628 110 626 110 b 628 103 626 106 626 104 l 636 90 l 644 103 b 646 107 646 104 646 106 b 643 110 646 110 644 110 b 642 113 642 110 642 111 b 643 114 642 113 642 114 b 654 113 647 114 649 113 b 665 114 660 113 661 114 z m 425 240 b 424 238 425 239 424 238 b 406 239 417 238 414 239 b 385 238 397 239 393 238 l 383 240 b 385 243 383 242 383 243 b 394 250 393 244 394 246 b 394 256 394 251 394 253 l 390 274 b 382 269 386 274 385 274 l 365 239 b 340 236 354 239 347 238 b 339 239 340 236 339 236 b 340 240 339 240 339 240 b 357 254 347 243 353 246 l 369 276 b 344 300 357 278 344 289 b 371 317 344 313 354 317 b 390 317 379 317 383 317 b 407 317 399 317 400 317 b 410 314 408 317 410 315 b 408 313 410 314 410 313 b 399 306 400 311 399 310 b 399 300 399 304 399 303 l 410 256 b 424 243 411 247 411 244 z m 589 89 b 561 64 589 75 578 64 b 535 89 544 64 535 75 b 561 114 535 103 544 114 b 589 89 578 114 589 103 z m 506 67 b 504 64 506 65 506 64 b 492 65 500 64 499 65 b 481 64 486 65 485 64 b 479 67 479 64 479 65 b 481 68 479 67 479 68 b 488 75 486 68 488 71 l 488 88 b 478 81 482 88 482 86 l 469 65 b 461 65 465 65 464 65 b 453 65 460 65 457 65 b 453 67 453 65 453 65 b 453 68 453 68 453 68 b 463 74 460 68 461 71 l 474 89 b 463 101 467 92 463 96 b 479 114 463 108 469 114 b 492 113 485 114 486 113 b 504 114 497 113 500 114 b 506 113 506 114 506 113 b 504 110 506 111 506 110 b 497 103 497 110 497 107 l 497 75 b 504 68 497 71 497 68 b 506 67 506 68 506 67 z m 281 299 b 278 299 279 299 278 299 b 261 308 274 303 269 308 b 249 290 253 308 249 301 b 253 267 249 283 250 275 l 256 256 b 269 243 257 247 257 244 l 271 240 b 269 238 271 239 269 238 b 253 239 263 238 260 239 b 232 238 244 239 240 238 b 231 240 231 238 231 240 b 231 243 231 242 231 243 b 240 250 239 244 240 246 b 240 256 240 251 240 253 l 239 264 b 206 310 232 290 224 310 b 194 301 199 310 194 307 b 190 301 193 301 192 301 b 190 303 190 303 190 303 b 203 319 190 311 194 319 b 236 288 218 319 231 306 b 236 294 236 290 236 293 b 256 319 236 310 242 319 b 281 301 269 319 275 311 b 281 299 282 301 282 300 z m 428 64 b 415 65 424 64 421 65 b 403 64 410 65 408 64 b 403 67 403 64 403 65 l 403 68 b 411 75 411 68 411 71 l 411 88 b 406 85 408 88 407 86 l 396 74 b 394 71 394 72 394 72 b 399 68 394 68 394 68 l 399 67 b 399 64 399 65 399 64 b 385 65 393 64 389 65 b 374 64 379 65 378 64 b 372 67 372 64 372 65 l 374 68 b 383 74 378 68 381 71 l 401 92 l 389 104 b 378 110 386 107 385 110 b 378 113 378 110 378 111 l 378 114 b 386 113 381 114 382 113 b 396 114 390 113 392 114 l 396 113 b 396 110 396 111 396 110 b 392 108 393 110 392 110 b 394 104 392 107 393 106 l 406 93 b 411 89 407 90 408 89 l 411 103 b 403 110 411 107 411 110 b 403 113 403 110 403 111 l 403 114 b 415 113 408 114 410 113 b 428 114 421 113 424 114 l 428 113 b 428 110 428 111 428 110 b 419 103 421 110 419 107 l 419 75 b 428 68 419 71 421 68 l 428 67 b 428 64 428 65 428 64 z m 949 743 b 915 799 949 772 932 799 b 899 778 903 799 899 792 b 932 724 899 750 915 724 b 949 743 944 724 949 729 z m 785 768 b 775 769 782 769 778 769 b 769 765 771 769 769 768 b 775 763 769 764 771 763 b 785 768 778 763 782 764 z m 990 261 b 957 315 990 289 976 315 b 943 296 947 315 943 310 b 976 240 943 267 957 240 b 990 261 986 240 990 247 z m 375 768 b 365 769 372 769 369 769 b 361 765 361 769 361 768 b 365 763 361 764 363 763 b 375 768 369 763 372 764 z m 540 533 l 540 564 l 525 564 b 507 549 513 564 507 557 b 525 533 507 540 513 533 z m 244 761 l 240 786 b 228 794 238 793 236 794 b 217 782 219 794 217 792 b 238 761 217 774 221 761 z m 769 107 b 765 110 769 110 768 110 b 763 106 764 110 763 110 b 765 99 763 106 764 101 b 769 107 768 103 769 106 z m 544 253 l 532 303 b 524 311 529 311 528 311 l 515 313 b 496 288 503 313 496 303 b 532 244 496 265 511 244 l 539 244 b 544 253 543 244 544 244 z m 389 279 l 382 303 b 372 313 382 311 379 313 b 361 299 364 313 361 308 b 382 279 361 290 365 279 z m 578 89 b 561 113 578 101 574 113 b 544 89 550 113 544 101 b 561 67 544 76 550 67 b 578 89 574 67 578 76 z m 488 90 l 488 104 b 482 110 488 110 486 110 b 472 101 475 110 472 106 b 483 90 472 93 475 90 b 488 90 486 90 486 90 z "},"Ò":{"ha":1008,"x_min":0,"x_max":0,"o":"m 982 639 b 646 1008 982 869 846 1008 b 68 347 350 1008 68 681 b 406 -24 68 117 206 -24 b 982 639 701 -24 982 306 z m 869 788 b 665 135 869 624 726 233 b 406 -7 599 28 507 -7 b 181 197 268 -7 181 57 b 386 850 181 361 325 753 b 646 992 453 957 544 992 b 869 788 783 992 869 929 z m 760 1064 b 538 1317 561 1115 604 1317 b 486 1261 508 1317 486 1293 b 756 1049 486 1190 553 1097 b 760 1064 758 1047 763 1064 z "},"Ú":{"ha":1040,"x_min":0,"x_max":0,"o":"m 1169 985 l 896 985 b 892 968 893 985 888 968 l 1010 968 b 1017 963 1015 968 1018 965 l 807 296 b 461 7 749 111 647 7 b 268 157 344 7 268 67 b 307 350 268 210 283 278 l 499 963 b 510 968 500 965 503 968 l 635 968 b 639 985 638 968 642 985 l 219 985 b 215 968 217 985 213 968 l 340 968 b 347 963 346 968 349 965 l 158 365 b 135 224 143 315 135 268 b 415 -24 135 81 219 -24 b 822 285 636 -24 761 93 l 1036 963 b 1046 968 1036 965 1040 968 l 1165 968 b 1169 985 1168 968 1174 985 z m 1017 1267 b 972 1310 1017 1292 1000 1310 b 651 1076 903 1310 886 1121 b 650 1060 649 1075 646 1060 b 1017 1267 924 1110 1017 1208 z "},"Û":{"ha":1040,"x_min":0,"x_max":0,"o":"m 1169 985 l 896 985 b 892 968 893 985 888 968 l 1010 968 b 1017 963 1015 968 1018 965 l 807 296 b 461 7 749 111 647 7 b 268 157 344 7 268 67 b 307 350 268 210 283 278 l 499 963 b 510 968 500 965 503 968 l 635 968 b 639 985 638 968 642 985 l 219 985 b 215 968 217 985 213 968 l 340 968 b 347 963 346 968 349 965 l 158 365 b 135 224 143 315 135 268 b 415 -24 135 81 219 -24 b 822 285 636 -24 761 93 l 1036 963 b 1046 968 1036 965 1040 968 l 1165 968 b 1169 985 1168 968 1174 985 z m 958 1079 b 888 1346 928 1151 896 1265 b 871 1350 888 1349 874 1353 b 614 1081 807 1285 721 1172 b 628 1074 611 1079 625 1071 b 825 1253 694 1131 776 1203 b 890 1071 840 1182 867 1111 z "},"Ù":{"ha":1040,"x_min":0,"x_max":0,"o":"m 1169 985 l 896 985 b 892 968 893 985 888 968 l 1010 968 b 1017 963 1015 968 1018 965 l 807 296 b 461 7 749 111 647 7 b 268 157 344 7 268 67 b 307 350 268 210 283 278 l 499 963 b 510 968 500 965 503 968 l 635 968 b 639 985 638 968 642 985 l 219 985 b 215 968 217 985 213 968 l 340 968 b 347 963 346 968 349 965 l 158 365 b 135 224 143 315 135 268 b 415 -24 135 81 219 -24 b 822 285 636 -24 761 93 l 1036 963 b 1046 968 1036 965 1040 968 l 1165 968 b 1169 985 1168 968 1174 985 z m 860 1064 b 638 1317 661 1115 704 1317 b 586 1261 608 1317 586 1293 b 856 1049 586 1190 653 1097 b 860 1064 858 1047 863 1064 z "}}}
